<svg width="315" height="60" viewBox="0 0 315 60" fill="none" xmlns="http://www.w3.org/2000/svg">
<path d="M0.25284 57.1685L2.97046 53.1107L0.369727 49.1704H2.91933L4.24892 51.4934L5.54929 49.1704H8.02583L5.41048 53.0739L8.12811 57.1685H5.53468L4.16125 54.7647L2.78052 57.1685H0.25284Z" fill="#EB0028"/>
<path d="M19.854 51.1071V52.8647H12.6615V51.1071H19.854ZM19.854 54.228V55.9856H12.6615V54.228H19.854Z" fill="white"/>
<path d="M26.593 49.4231H24.7696V47.7533H26.593V49.4231ZM24.7696 50.2484H26.593V57.1685H24.7696V50.2484Z" fill="white"/>
<path d="M32.1514 50.0833C32.8622 50.0833 33.4427 50.2717 33.8927 50.6484C34.347 51.0208 34.5741 51.6409 34.5741 52.5085V57.1685H32.7318V52.9593C32.7318 52.5953 32.6835 52.316 32.5867 52.1213C32.4101 51.7657 32.0736 51.588 31.5773 51.588C30.9674 51.588 30.5488 51.8483 30.3217 52.3689C30.2039 52.644 30.1451 52.9953 30.1451 53.4227V57.1685H28.3532V50.2611H30.0883V51.2705C30.3196 50.915 30.5383 50.6589 30.7444 50.5023C31.1146 50.223 31.5836 50.0833 32.1514 50.0833Z" fill="white"/>
<path d="M38.7761 50.0833C39.1925 50.0833 39.5627 50.1764 39.8865 50.3627C40.2104 50.5447 40.4733 50.7986 40.6752 51.1245V47.8232H42.4986V57.1685H40.7509V56.2098C40.4943 56.6204 40.202 56.9188 39.8739 57.105C39.5458 57.2912 39.1378 57.3843 38.6499 57.3843C37.8465 57.3843 37.1693 57.0584 36.6183 56.4066C36.0715 55.7506 35.7981 54.9105 35.7981 53.8862C35.7981 52.7053 36.0673 51.7763 36.6057 51.0991C37.1483 50.4219 37.8718 50.0833 38.7761 50.0833ZM39.1673 55.8606C39.6762 55.8606 40.0632 55.6702 40.3282 55.2893C40.5932 54.9083 40.7257 54.4153 40.7257 53.81C40.7257 52.9635 40.5133 52.3583 40.0884 51.9943C39.8276 51.7742 39.5248 51.6642 39.1799 51.6642C38.6541 51.6642 38.2672 51.8652 38.019 52.2673C37.775 52.6651 37.6531 53.1603 37.6531 53.7529C37.6531 54.392 37.7771 54.9041 38.0253 55.2893C38.2777 55.6702 38.6583 55.8606 39.1673 55.8606Z" fill="white"/>
<path d="M46.8519 51.5562C46.4355 51.5562 46.1117 51.6874 45.8803 51.9498C45.6532 52.2123 45.5102 52.5678 45.4513 53.0164H48.2463C48.2168 52.5382 48.0717 52.1763 47.8109 51.9308C47.5544 51.6811 47.2347 51.5562 46.8519 51.5562ZM46.8519 50.0643C47.424 50.0643 47.9392 50.1722 48.3977 50.3881C48.8562 50.6039 49.2347 50.9446 49.5334 51.4102C49.8026 51.8208 49.9771 52.2969 50.057 52.8387C50.1033 53.1561 50.1222 53.6132 50.1138 54.21H45.4071C45.4324 54.9041 45.649 55.3908 46.057 55.6702C46.3051 55.8437 46.6038 55.9305 46.9529 55.9305C47.323 55.9305 47.6238 55.8247 47.8551 55.613C47.9813 55.4988 48.0928 55.3401 48.1895 55.1369H50.0255C49.9792 55.5474 49.7668 55.9643 49.3883 56.3876C48.7994 57.0606 47.975 57.397 46.915 57.397C46.0401 57.397 45.2683 57.1135 44.5995 56.5463C43.9308 55.9792 43.5964 55.0565 43.5964 53.7783C43.5964 52.5805 43.8971 51.662 44.4986 51.0229C45.1043 50.3838 45.8887 50.0643 46.8519 50.0643Z" fill="white"/>
<path d="M56.0698 53.7084C56.0698 53.1751 55.9478 52.7032 55.7038 52.2927C55.4641 51.8821 55.0729 51.6768 54.5303 51.6768C53.8783 51.6768 53.4304 51.9879 53.1864 52.6101C53.0602 52.9402 52.9971 53.3593 52.9971 53.8672C52.9971 54.6713 53.2096 55.2364 53.6344 55.5623C53.8868 55.7527 54.1854 55.8479 54.5303 55.8479C55.0308 55.8479 55.4115 55.6533 55.6723 55.2639C55.9373 54.8745 56.0698 54.356 56.0698 53.7084ZM55.0477 50.096C55.851 50.096 56.5303 50.3944 57.0855 50.9912C57.645 51.588 57.9247 52.4641 57.9247 53.6196C57.9247 54.8385 57.6513 55.7675 57.1045 56.4066C56.5619 57.0457 55.8615 57.3653 55.0035 57.3653C54.4567 57.3653 54.0024 57.2277 53.6407 56.9526C53.443 56.8003 53.2495 56.578 53.0602 56.286V59.8921H51.281V50.2484H53.0035V51.2705C53.1969 50.97 53.403 50.733 53.6218 50.5595C54.0214 50.2505 54.4966 50.096 55.0477 50.096Z" fill="white"/>
<path d="M61.9437 51.5562C61.5273 51.5562 61.2034 51.6874 60.972 51.9498C60.7449 52.2123 60.6019 52.5678 60.543 53.0164H63.338C63.3086 52.5382 63.1634 52.1763 62.9027 51.9308C62.6461 51.6811 62.3264 51.5562 61.9437 51.5562ZM61.9437 50.0643C62.5157 50.0643 63.031 50.1722 63.4894 50.3881C63.9479 50.6039 64.3265 50.9446 64.6251 51.4102C64.8943 51.8208 65.0688 52.2969 65.1488 52.8387C65.195 53.1561 65.214 53.6132 65.2055 54.21H60.4988C60.5241 54.9041 60.7407 55.3908 61.1487 55.6702C61.3969 55.8437 61.6955 55.9305 62.0446 55.9305C62.4147 55.9305 62.7155 55.8247 62.9468 55.613C63.073 55.4988 63.1845 55.3401 63.2812 55.1369H65.1172C65.0709 55.5474 64.8585 55.9643 64.48 56.3876C63.8911 57.0606 63.0667 57.397 62.0068 57.397C61.1319 57.397 60.36 57.1135 59.6913 56.5463C59.0225 55.9792 58.6881 55.0565 58.6881 53.7783C58.6881 52.5805 58.9888 51.662 59.5903 51.0229C60.196 50.3838 60.9804 50.0643 61.9437 50.0643Z" fill="white"/>
<path d="M70.234 50.0833C70.9449 50.0833 71.5253 50.2717 71.9754 50.6484C72.4296 51.0208 72.6568 51.6409 72.6568 52.5085V57.1685H70.8145V52.9593C70.8145 52.5953 70.7661 52.316 70.6693 52.1213C70.4927 51.7657 70.1562 51.588 69.6599 51.588C69.05 51.588 68.6315 51.8483 68.4043 52.3689C68.2866 52.644 68.2277 52.9953 68.2277 53.4227V57.1685H66.4358V50.2611H68.1709V51.2705C68.4022 50.915 68.6209 50.6589 68.827 50.5023C69.1972 50.223 69.6662 50.0833 70.234 50.0833Z" fill="white"/>
<path d="M76.8587 50.0833C77.2751 50.0833 77.6453 50.1764 77.9692 50.3627C78.293 50.5447 78.5559 50.7986 78.7578 51.1245V47.8232H80.5812V57.1685H78.8335V56.2098C78.5769 56.6204 78.2846 56.9188 77.9565 57.105C77.6284 57.2912 77.2205 57.3843 76.7325 57.3843C75.9292 57.3843 75.252 57.0584 74.701 56.4066C74.1542 55.7506 73.8808 54.9105 73.8808 53.8862C73.8808 52.7053 74.1499 51.7763 74.6883 51.0991C75.2309 50.4219 75.9544 50.0833 76.8587 50.0833ZM77.2499 55.8606C77.7588 55.8606 78.1458 55.6702 78.4108 55.2893C78.6758 54.9083 78.8083 54.4153 78.8083 53.81C78.8083 52.9635 78.5959 52.3583 78.171 51.9943C77.9103 51.7742 77.6074 51.6642 77.2625 51.6642C76.7367 51.6642 76.3498 51.8652 76.1016 52.2673C75.8577 52.6651 75.7357 53.1603 75.7357 53.7529C75.7357 54.392 75.8598 54.9041 76.1079 55.2893C76.3603 55.6702 76.7409 55.8606 77.2499 55.8606Z" fill="white"/>
<path d="M84.9346 51.5562C84.5181 51.5562 84.1943 51.6874 83.9629 51.9498C83.7358 52.2123 83.5928 52.5678 83.5339 53.0164H86.3289C86.2995 52.5382 86.1543 52.1763 85.8936 51.9308C85.637 51.6811 85.3173 51.5562 84.9346 51.5562ZM84.9346 50.0643C85.5066 50.0643 86.0219 50.1722 86.4803 50.3881C86.9388 50.6039 87.3174 50.9446 87.616 51.4102C87.8852 51.8208 88.0597 52.2969 88.1397 52.8387C88.1859 53.1561 88.2048 53.6132 88.1964 54.21H83.4897C83.515 54.9041 83.7316 55.3908 84.1396 55.6702C84.3878 55.8437 84.6864 55.9305 85.0355 55.9305C85.4056 55.9305 85.7064 55.8247 85.9377 55.613C86.0639 55.4988 86.1754 55.3401 86.2721 55.1369H88.1081C88.0618 55.5474 87.8494 55.9643 87.4709 56.3876C86.882 57.0606 86.0576 57.397 84.9977 57.397C84.1228 57.397 83.3509 57.1135 82.6822 56.5463C82.0134 55.9792 81.679 55.0565 81.679 53.7783C81.679 52.5805 81.9797 51.662 82.5812 51.0229C83.1869 50.3838 83.9713 50.0643 84.9346 50.0643Z" fill="white"/>
<path d="M93.2249 50.0833C93.9358 50.0833 94.5162 50.2717 94.9663 50.6484C95.4205 51.0208 95.6477 51.6409 95.6477 52.5085V57.1685H93.8054V52.9593C93.8054 52.5953 93.757 52.316 93.6602 52.1213C93.4836 51.7657 93.1471 51.588 92.6508 51.588C92.0409 51.588 91.6224 51.8483 91.3952 52.3689C91.2775 52.644 91.2186 52.9953 91.2186 53.4227V57.1685H89.4267V50.2611H91.1618V51.2705C91.3931 50.915 91.6118 50.6589 91.8179 50.5023C92.1881 50.223 92.6571 50.0833 93.2249 50.0833Z" fill="white"/>
<path d="M96.6067 51.6007V50.3119H97.5657V48.3819H99.3449V50.3119H100.462V51.6007H99.3449V55.2575C99.3449 55.5411 99.3806 55.7189 99.4521 55.7908C99.5236 55.8585 99.7424 55.8924 100.108 55.8924C100.163 55.8924 100.22 55.8924 100.279 55.8924C100.342 55.8882 100.403 55.8839 100.462 55.8797V57.232L99.6099 57.2637C98.7602 57.2933 98.1798 57.1452 97.8685 56.8193C97.6666 56.6119 97.5657 56.2924 97.5657 55.8606V51.6007H96.6067Z" fill="white"/>
<path d="M103.452 57.1685H101.654V47.8105H103.452V57.1685Z" fill="white"/>
<path d="M105.49 58.4954L105.717 58.5081C105.894 58.5165 106.062 58.5102 106.222 58.489C106.382 58.4678 106.516 58.4192 106.626 58.343C106.731 58.271 106.828 58.1208 106.916 57.8922C107.009 57.6637 107.046 57.524 107.03 57.4732L104.506 50.2484H106.506L108.007 55.3527L109.427 50.2484H111.339L108.979 57.0542C108.525 58.3663 108.165 59.1789 107.9 59.4921C107.635 59.8095 107.105 59.9683 106.31 59.9683C106.15 59.9683 106.022 59.9661 105.925 59.9619C105.829 59.9619 105.684 59.9556 105.49 59.9429V58.4954Z" fill="white"/>
<path d="M119.087 55.8924C119.612 55.8924 120.016 55.704 120.298 55.3274C120.58 54.9507 120.721 54.4153 120.721 53.7211C120.721 53.027 120.58 52.4937 120.298 52.1213C120.016 51.7446 119.612 51.5562 119.087 51.5562C118.561 51.5562 118.155 51.7446 117.869 52.1213C117.587 52.4937 117.446 53.027 117.446 53.7211C117.446 54.4153 117.587 54.9507 117.869 55.3274C118.155 55.704 118.561 55.8924 119.087 55.8924ZM122.607 53.7211C122.607 54.7369 122.317 55.6067 121.736 56.3305C121.156 57.05 120.275 57.4097 119.093 57.4097C117.911 57.4097 117.03 57.05 116.449 56.3305C115.869 55.6067 115.579 54.7369 115.579 53.7211C115.579 52.7223 115.869 51.8567 116.449 51.1245C117.03 50.3923 117.911 50.0262 119.093 50.0262C120.275 50.0262 121.156 50.3923 121.736 51.1245C122.317 51.8567 122.607 52.7223 122.607 53.7211Z" fill="white"/>
<path d="M127.636 50.0833C127.669 50.0833 127.697 50.0854 127.718 50.0897C127.743 50.0897 127.795 50.0918 127.875 50.096V51.9498C127.762 51.9371 127.661 51.9287 127.572 51.9244C127.484 51.9202 127.413 51.9181 127.358 51.9181C126.634 51.9181 126.149 52.1551 125.901 52.6292C125.762 52.8958 125.692 53.3064 125.692 53.8608V57.1685H123.882V50.2484H125.598V51.4546C125.875 50.9933 126.117 50.678 126.323 50.5087C126.66 50.2251 127.097 50.0833 127.636 50.0833Z" fill="white"/>
<path d="M131.888 55.6829C132.309 55.6829 132.664 55.5242 132.954 55.2067C133.244 54.8851 133.39 54.375 133.39 53.6767C133.39 53.0207 133.251 52.5212 132.973 52.1784C132.7 51.8356 132.332 51.6642 131.869 51.6642C131.238 51.6642 130.803 51.9625 130.563 52.5593C130.437 52.8768 130.374 53.2683 130.374 53.7338C130.374 54.1359 130.441 54.4936 130.576 54.8068C130.82 55.3908 131.257 55.6829 131.888 55.6829ZM131.44 50.0833C131.785 50.0833 132.086 50.1362 132.342 50.242C132.78 50.424 133.133 50.7584 133.402 51.2451V50.2484H135.15V56.813C135.15 57.706 135.001 58.379 134.702 58.8318C134.189 59.6106 133.204 60 131.749 60C130.87 60 130.153 59.8265 129.598 59.4794C129.043 59.1323 128.735 58.6139 128.677 57.924H130.632C130.683 58.1356 130.765 58.288 130.878 58.3811C131.072 58.5462 131.398 58.6287 131.856 58.6287C132.504 58.6287 132.937 58.4107 133.156 57.9748C133.299 57.6954 133.371 57.2256 133.371 56.5654V56.1209C133.198 56.4172 133.013 56.6394 132.815 56.7876C132.458 57.0627 131.993 57.2002 131.421 57.2002C130.538 57.2002 129.831 56.8891 129.301 56.267C128.775 55.6406 128.513 54.7941 128.513 53.7275C128.513 52.699 128.767 51.8356 129.276 51.1372C129.785 50.4346 130.506 50.0833 131.44 50.0833Z" fill="white"/>
<path d="M140.626 53.8037C140.513 53.8756 140.397 53.9349 140.279 53.9814C140.166 54.0238 140.008 54.064 139.806 54.1021L139.402 54.1782C139.024 54.246 138.752 54.3285 138.588 54.4258C138.311 54.5909 138.172 54.847 138.172 55.194C138.172 55.503 138.256 55.7273 138.424 55.867C138.597 56.0024 138.805 56.0702 139.049 56.0702C139.436 56.0702 139.791 55.9559 140.115 55.7273C140.443 55.4988 140.614 55.0819 140.626 54.4766V53.8037ZM139.535 52.9593C139.867 52.917 140.105 52.8641 140.248 52.8006C140.504 52.6905 140.633 52.5191 140.633 52.2863C140.633 52.0028 140.534 51.8081 140.336 51.7022C140.143 51.5922 139.857 51.5372 139.478 51.5372C139.053 51.5372 138.752 51.643 138.576 51.8546C138.45 52.0112 138.365 52.2228 138.323 52.4895H136.588C136.626 51.8842 136.794 51.3869 137.093 50.9975C137.568 50.3881 138.384 50.0833 139.541 50.0833C140.294 50.0833 140.963 50.2336 141.547 50.5341C142.132 50.8346 142.424 51.4017 142.424 52.2355V55.4099C142.424 55.63 142.429 55.8966 142.437 56.2098C142.45 56.4468 142.485 56.6077 142.544 56.6923C142.603 56.777 142.692 56.8468 142.809 56.9018V57.1685H140.853C140.799 57.0288 140.761 56.8976 140.74 56.7749C140.719 56.6521 140.702 56.5124 140.689 56.3558C140.441 56.6267 140.155 56.8574 139.831 57.0479C139.444 57.2722 139.007 57.3843 138.519 57.3843C137.896 57.3843 137.381 57.2066 136.973 56.851C136.569 56.4913 136.368 55.9834 136.368 55.3274C136.368 54.4766 136.694 53.8608 137.345 53.4799C137.703 53.2725 138.229 53.1244 138.923 53.0355L139.535 52.9593Z" fill="white"/>
<path d="M147.838 50.0833C148.549 50.0833 149.129 50.2717 149.579 50.6484C150.033 51.0208 150.26 51.6409 150.26 52.5085V57.1685H148.418V52.9593C148.418 52.5953 148.37 52.316 148.273 52.1213C148.096 51.7657 147.76 51.588 147.264 51.588C146.654 51.588 146.235 51.8483 146.008 52.3689C145.89 52.644 145.831 52.9953 145.831 53.4227V57.1685H144.04V50.2611H145.775V51.2705C146.006 50.915 146.225 50.6589 146.431 50.5023C146.801 50.223 147.27 50.0833 147.838 50.0833Z" fill="white"/>
<path d="M153.775 49.4231H151.951V47.7533H153.775V49.4231ZM151.951 50.2484H153.775V57.1685H151.951V50.2484Z" fill="white"/>
<path d="M155.131 51.7213V50.2484H160.709V51.753L157.22 55.6829H160.828V57.1685H154.891V55.7591L158.418 51.7213H155.131Z" fill="white"/>
<path d="M164.696 51.5562C164.28 51.5562 163.956 51.6874 163.724 51.9498C163.497 52.2123 163.354 52.5678 163.295 53.0164H166.09C166.061 52.5382 165.916 52.1763 165.655 51.9308C165.398 51.6811 165.079 51.5562 164.696 51.5562ZM164.696 50.0643C165.268 50.0643 165.783 50.1722 166.242 50.3881C166.7 50.6039 167.079 50.9446 167.377 51.4102C167.647 51.8208 167.821 52.2969 167.901 52.8387C167.947 53.1561 167.966 53.6132 167.958 54.21H163.251C163.276 54.9041 163.493 55.3908 163.901 55.6702C164.149 55.8437 164.448 55.9305 164.797 55.9305C165.167 55.9305 165.468 55.8247 165.699 55.613C165.825 55.4988 165.937 55.3401 166.034 55.1369H167.87C167.823 55.5474 167.611 55.9643 167.232 56.3876C166.644 57.0606 165.819 57.397 164.759 57.397C163.884 57.397 163.112 57.1135 162.444 56.5463C161.775 55.9792 161.44 55.0565 161.44 53.7783C161.44 52.5805 161.741 51.662 162.343 51.0229C162.948 50.3838 163.733 50.0643 164.696 50.0643Z" fill="white"/>
<path d="M171.712 50.0833C172.128 50.0833 172.498 50.1764 172.822 50.3627C173.146 50.5447 173.409 50.7986 173.611 51.1245V47.8232H175.434V57.1685H173.687V56.2098C173.43 56.6204 173.138 56.9188 172.81 57.105C172.482 57.2912 172.074 57.3843 171.586 57.3843C170.782 57.3843 170.105 57.0584 169.554 56.4066C169.007 55.7506 168.734 54.9105 168.734 53.8862C168.734 52.7053 169.003 51.7763 169.542 51.0991C170.084 50.4219 170.808 50.0833 171.712 50.0833ZM172.103 55.8606C172.612 55.8606 172.999 55.6702 173.264 55.2893C173.529 54.9083 173.661 54.4153 173.661 53.81C173.661 52.9635 173.449 52.3583 173.024 51.9943C172.763 51.7742 172.461 51.6642 172.116 51.6642C171.59 51.6642 171.203 51.8652 170.955 52.2673C170.711 52.6651 170.589 53.1603 170.589 53.7529C170.589 54.392 170.713 54.9041 170.961 55.2893C171.214 55.6702 171.594 55.8606 172.103 55.8606Z" fill="white"/>
<path d="M187.573 47.8105V49.4675H184.791V57.1685H182.835V49.4675H180.04V47.8105H187.573Z" fill="white"/>
<path d="M195.592 49.4675H190.671V51.4546H195.189V53.0799H190.671V55.4861H195.82V57.1685H188.772V47.8105H195.592V49.4675Z" fill="white"/>
<path d="M199.22 49.4358V55.5432H201.012C201.929 55.5432 202.568 55.0882 202.93 54.1782C203.128 53.6788 203.227 53.0841 203.227 52.3943C203.227 51.4419 203.077 50.7118 202.779 50.2039C202.484 49.6918 201.895 49.4358 201.012 49.4358H199.22ZM201.34 47.8105C201.916 47.819 202.396 47.8867 202.779 48.0136C203.431 48.2295 203.959 48.6252 204.362 49.2009C204.686 49.6664 204.907 50.1701 205.025 50.7118C205.143 51.2536 205.201 51.77 205.201 52.2609C205.201 53.5053 204.953 54.5592 204.457 55.4226C203.784 56.5865 202.745 57.1685 201.34 57.1685H197.334V47.8105H201.34Z" fill="white"/>
<path d="M212.836 51.5562C212.419 51.5562 212.095 51.6874 211.864 51.9498C211.637 52.2123 211.494 52.5678 211.435 53.0164H214.23C214.201 52.5382 214.055 52.1763 213.795 51.9308C213.538 51.6811 213.218 51.5562 212.836 51.5562ZM212.836 50.0643C213.408 50.0643 213.923 50.1722 214.381 50.3881C214.84 50.6039 215.218 50.9446 215.517 51.4102C215.786 51.8208 215.961 52.2969 216.041 52.8387C216.087 53.1561 216.106 53.6132 216.098 54.21H211.391C211.416 54.9041 211.633 55.3908 212.041 55.6702C212.289 55.8437 212.587 55.9305 212.937 55.9305C213.307 55.9305 213.607 55.8247 213.839 55.613C213.965 55.4988 214.076 55.3401 214.173 55.1369H216.009C215.963 55.5474 215.751 55.9643 215.372 56.3876C214.783 57.0606 213.959 57.397 212.899 57.397C212.024 57.397 211.252 57.1135 210.583 56.5463C209.914 55.9792 209.58 55.0565 209.58 53.7783C209.58 52.5805 209.881 51.662 210.482 51.0229C211.088 50.3838 211.872 50.0643 212.836 50.0643Z" fill="white"/>
<path d="M221.555 50.2484H223.486L221.006 57.1685H219.107L216.64 50.2484H218.659L220.091 55.3527L221.555 50.2484Z" fill="white"/>
<path d="M227.221 51.5562C226.804 51.5562 226.48 51.6874 226.249 51.9498C226.022 52.2123 225.879 52.5678 225.82 53.0164H228.615C228.586 52.5382 228.441 52.1763 228.18 51.9308C227.923 51.6811 227.603 51.5562 227.221 51.5562ZM227.221 50.0643C227.793 50.0643 228.308 50.1722 228.766 50.3881C229.225 50.6039 229.604 50.9446 229.902 51.4102C230.171 51.8208 230.346 52.2969 230.426 52.8387C230.472 53.1561 230.491 53.6132 230.483 54.21H225.776C225.801 54.9041 226.018 55.3908 226.426 55.6702C226.674 55.8437 226.973 55.9305 227.322 55.9305C227.692 55.9305 227.993 55.8247 228.224 55.613C228.35 55.4988 228.462 55.3401 228.558 55.1369H230.394C230.348 55.5474 230.136 55.9643 229.757 56.3876C229.168 57.0606 228.344 57.397 227.284 57.397C226.409 57.397 225.637 57.1135 224.968 56.5463C224.3 55.9792 223.965 55.0565 223.965 53.7783C223.965 52.5805 224.266 51.662 224.867 51.0229C225.473 50.3838 226.258 50.0643 227.221 50.0643Z" fill="white"/>
<path d="M235.511 50.0833C236.222 50.0833 236.802 50.2717 237.252 50.6484C237.707 51.0208 237.934 51.6409 237.934 52.5085V57.1685H236.092V52.9593C236.092 52.5953 236.043 52.316 235.946 52.1213C235.77 51.7657 235.433 51.588 234.937 51.588C234.327 51.588 233.909 51.8483 233.681 52.3689C233.564 52.644 233.505 52.9953 233.505 53.4227V57.1685H231.713V50.2611H233.448V51.2705C233.679 50.915 233.898 50.6589 234.104 50.5023C234.474 50.223 234.943 50.0833 235.511 50.0833Z" fill="white"/>
<path d="M238.893 51.6007V50.3119H239.852V48.3819H241.631V50.3119H242.748V51.6007H241.631V55.2575C241.631 55.5411 241.667 55.7189 241.738 55.7908C241.81 55.8585 242.029 55.8924 242.394 55.8924C242.449 55.8924 242.506 55.8924 242.565 55.8924C242.628 55.8882 242.689 55.8839 242.748 55.8797V57.232L241.896 57.2637C241.046 57.2933 240.466 57.1452 240.155 56.8193C239.953 56.6119 239.852 56.2924 239.852 55.8606V51.6007H238.893Z" fill="white"/>
<path d="M128.163 0H133.169V36.8141H128.163V0Z" fill="white"/>
<path d="M142.359 0H147.365V36.8141H142.359V0Z" fill="white"/>
<path d="M182.058 0V4.38562H169.73V36.8141H164.699V4.38562H152.371V0H182.058Z" fill="white"/>
<path d="M187.088 0H203.55C206.805 0 209.428 0.927245 211.42 2.78174C213.413 4.61952 214.409 7.20912 214.409 10.5505C214.409 13.4242 213.521 15.9302 211.744 18.0688C209.968 20.1906 207.236 21.2515 203.55 21.2515H192.044V36.8141H187.088V0ZM209.403 10.5756C209.403 7.86905 208.407 6.03127 206.415 5.06226C205.319 4.54434 203.816 4.28538 201.907 4.28538H192.044V17.0413H201.907C204.132 17.0413 205.933 16.5651 207.311 15.6128C208.706 14.6605 209.403 12.9814 209.403 10.5756Z" fill="white"/>
<path d="M223.474 29.6718C223.474 30.975 223.948 32.0025 224.894 32.7543C225.84 33.5061 226.961 33.882 228.256 33.882C229.833 33.882 231.361 33.5145 232.839 32.7794C235.329 31.5597 236.574 29.5632 236.574 26.7899V23.1561C236.027 23.5069 235.321 23.7993 234.457 24.0332C233.594 24.2671 232.747 24.4342 231.917 24.5344L229.203 24.8853C227.575 25.1024 226.355 25.4449 225.542 25.9127C224.163 26.698 223.474 27.951 223.474 29.6718ZM234.333 20.5498C235.362 20.4161 236.051 19.9817 236.4 19.2466C236.599 18.8456 236.699 18.2692 236.699 17.5174C236.699 15.9804 236.151 14.8693 235.055 14.1843C233.976 13.4826 232.424 13.1318 230.398 13.1318C228.057 13.1318 226.397 13.7667 225.417 15.0364C224.869 15.7381 224.512 16.7823 224.346 18.169H220.162C220.245 14.861 221.308 12.5638 223.35 11.2773C225.409 9.97415 227.791 9.32257 230.498 9.32257C233.636 9.32257 236.184 9.92403 238.143 11.1269C240.086 12.3299 241.057 14.2011 241.057 16.7405V32.203C241.057 32.6708 241.149 33.0467 241.331 33.3307C241.53 33.6147 241.937 33.7567 242.552 33.7567C242.751 33.7567 242.975 33.7484 243.224 33.7317C243.473 33.6983 243.739 33.6565 244.021 33.6064V36.9394C243.324 37.1399 242.792 37.2652 242.427 37.3154C242.062 37.3655 241.564 37.3905 240.933 37.3905C239.389 37.3905 238.268 36.8392 237.571 35.7365C237.205 35.1518 236.948 34.3248 236.799 33.2555C235.885 34.4584 234.574 35.5026 232.864 36.3881C231.153 37.2736 229.269 37.7163 227.21 37.7163C224.736 37.7163 222.711 36.9645 221.133 35.4609C219.573 33.9405 218.792 32.0443 218.792 29.7721C218.792 27.2827 219.564 25.3531 221.108 23.9831C222.653 22.6131 224.678 21.7694 227.185 21.4519L234.333 20.5498Z" fill="white"/>
<path d="M249.326 2.48101H253.858V9.97415H258.117V13.6581H253.858V31.1755C253.858 32.1111 254.174 32.7376 254.805 33.055C255.153 33.2388 255.735 33.3307 256.548 33.3307C256.764 33.3307 256.996 33.3307 257.245 33.3307C257.495 33.314 257.785 33.2889 258.117 33.2555V36.8141C257.602 36.9645 257.063 37.0731 256.498 37.1399C255.95 37.2068 255.353 37.2402 254.705 37.2402C252.613 37.2402 251.194 36.7055 250.446 35.6363C249.699 34.5503 249.326 33.1469 249.326 31.4261V13.6581H245.715V9.97415H249.326V2.48101Z" fill="white"/>
<path d="M262.625 9.97415H266.884V13.7834C268.146 12.2129 269.482 11.0852 270.893 10.4002C272.305 9.71519 273.874 9.37269 275.6 9.37269C279.386 9.37269 281.943 10.7009 283.271 13.3573C284.002 14.8109 284.367 16.8909 284.367 19.5975V36.8141H279.809V19.8982C279.809 18.2609 279.569 16.941 279.087 15.9386C278.29 14.2679 276.846 13.4325 274.754 13.4325C273.691 13.4325 272.819 13.5411 272.139 13.7583C270.91 14.1259 269.831 14.861 268.901 15.9637C268.154 16.8491 267.664 17.768 267.432 18.7203C267.216 19.6559 267.108 21.0009 267.108 22.7551V36.8141H262.625V9.97415Z" fill="white"/>
<path d="M294.453 29.6718C294.453 30.975 294.927 32.0025 295.873 32.7543C296.819 33.5061 297.94 33.882 299.235 33.882C300.812 33.882 302.34 33.5145 303.818 32.7794C306.308 31.5597 307.553 29.5632 307.553 26.7899V23.1561C307.006 23.5069 306.3 23.7993 305.437 24.0332C304.573 24.2671 303.726 24.4342 302.896 24.5344L300.182 24.8853C298.554 25.1024 297.334 25.4449 296.521 25.9127C295.142 26.698 294.453 27.951 294.453 29.6718ZM305.312 20.5498C306.341 20.4161 307.03 19.9817 307.379 19.2466C307.578 18.8456 307.678 18.2692 307.678 17.5174C307.678 15.9804 307.13 14.8693 306.034 14.1843C304.955 13.4826 303.403 13.1318 301.377 13.1318C299.036 13.1318 297.376 13.7667 296.396 15.0364C295.848 15.7381 295.491 16.7823 295.325 18.169H291.141C291.224 14.861 292.287 12.5638 294.329 11.2773C296.388 9.97415 298.77 9.32257 301.477 9.32257C304.615 9.32257 307.163 9.92403 309.122 11.1269C311.065 12.3299 312.036 14.2011 312.036 16.7405V32.203C312.036 32.6708 312.128 33.0467 312.31 33.3307C312.51 33.6147 312.916 33.7567 313.531 33.7567C313.73 33.7567 313.954 33.7484 314.203 33.7317C314.452 33.6983 314.718 33.6565 315 33.6064V36.9394C314.303 37.1399 313.771 37.2652 313.406 37.3154C313.041 37.3655 312.543 37.3905 311.912 37.3905C310.368 37.3905 309.247 36.8392 308.55 35.7365C308.184 35.1518 307.927 34.3248 307.778 33.2555C306.864 34.4584 305.553 35.5026 303.843 36.3881C302.132 37.2736 300.248 37.7163 298.189 37.7163C295.715 37.7163 293.69 36.9645 292.112 35.4609C290.552 33.9405 289.771 32.0443 289.771 29.7721C289.771 27.2827 290.543 25.3531 292.087 23.9831C293.632 22.6131 295.657 21.7694 298.164 21.4519L305.312 20.5498Z" fill="white"/>
<path d="M10.2955 9.63372H0V0.150966H31.9079V9.63372H21.6048V37.1482H10.2955V9.63372Z" fill="#EB0028"/>
<path d="M33.6528 0.150966H64.6125V9.63372H44.9696V14.2444H64.6125V23.0547H44.9696V27.6654H64.6176V37.1482H33.6528V0.150966Z" fill="#EB0028"/>
<path d="M66.5163 0.150966H85.0877C97.3298 0.150966 101.657 9.27085 101.657 18.5937C101.657 29.9467 95.6883 37.1482 82.8788 37.1482H66.5163V0.150966ZM77.8331 27.6654H82.2585C89.3189 27.6654 90.3401 21.9128 90.3401 18.4364C90.3401 16.1095 89.6164 9.63372 81.4364 9.63372H77.8331V27.6654Z" fill="#EB0028"/>
<path d="M117.918 22.9809L114.466 17.2156L111.1 22.9809H102.807L110.679 11.3235L103.099 0.15832H111.395L114.466 5.66984L117.626 0.15832H125.917L118.339 11.3235L126.214 22.9809H117.918Z" fill="#EB0028"/>
</svg>
