<svg width="1920" height="687" viewBox="0 0 1920 687" fill="none" xmlns="http://www.w3.org/2000/svg">
<g clip-path="url(#clip0_1_916)">
<rect width="1920" height="686.25" fill="black"/>
<path fill-rule="evenodd" clip-rule="evenodd" d="M346.154 31.2394C344.919 31.4444 340.719 35.9455 338.769 39.1542C332.722 49.1032 329.099 64.0608 328.413 81.9162C327.816 97.4446 331.354 111.849 339.934 128.821C341.095 131.118 342.802 134.57 343.727 136.492C344.652 138.413 345.43 140.019 345.455 140.061C345.481 140.102 346.486 140.236 347.689 140.358L349.878 140.581L349.438 139.217C347.512 133.24 345.738 118.762 344.986 102.881C344.517 92.9744 344.781 68.3453 345.45 59.6202C346.348 47.9165 347.928 37.6453 349.552 32.9708C349.896 31.9792 350.177 31.1303 350.177 31.0847C350.178 30.9615 347.118 31.0793 346.154 31.2394ZM350.675 31.9166C349.028 35.4201 347.123 47.1781 346.24 59.2875C344.239 86.7155 345.765 122.644 349.589 138.159L350.244 140.818H352.753H355.261L355.903 138.571C357.736 132.161 359.019 122.861 360.114 108.039C360.77 99.1754 360.861 73.4085 360.269 64.4455C359.199 48.2453 357.393 36.0377 355.456 31.9166C355.055 31.0617 354.897 31.0015 353.066 31.0015C351.234 31.0015 351.077 31.0617 350.675 31.9166ZM355.954 31.0847C355.954 31.1303 356.236 31.9792 356.58 32.9708C361.035 45.8007 362.838 84.6317 360.345 114.029C359.53 123.636 357.91 134.032 356.558 138.334C356.225 139.394 356.008 140.322 356.077 140.398C356.145 140.473 357.128 140.411 358.26 140.26L360.319 139.986L365.145 130.668C373.226 115.068 375.549 109.245 376.764 101.55C377.671 95.807 378.005 86.9924 377.6 79.4986C376.47 58.5583 371.334 42.215 363.276 33.9179C361.169 31.7472 360.68 31.4041 359.429 31.2164C358.007 31.0031 355.954 30.9253 355.954 31.0847ZM340.569 32.2976C333.68 34.1522 325.582 43.208 320.533 54.7041C316.329 64.2734 314.455 73.9689 314.469 86.076C314.479 94.2007 315.089 99.6106 316.328 102.548C318.496 107.688 323.209 119.107 341.178 162.749L345.618 173.532V179.16C345.618 182.555 345.748 185.054 345.946 185.46C346.568 186.732 348.03 187.074 352.859 187.074C357.563 187.074 359.101 186.767 359.608 185.729C359.772 185.395 359.906 182.514 359.906 179.328V173.535L364.58 162.251C367.15 156.045 371.881 144.603 375.093 136.824C386.623 108.896 387.564 106.667 389.068 103.713C391.185 99.5557 391.664 96.2253 391.651 85.7432C391.64 77.5023 391.151 72.9948 389.551 66.3816C386.356 53.1783 379.329 41.3235 371.046 35.1652C368.949 33.6058 367.965 33.1146 365.638 32.466C364.074 32.0301 362.615 31.672 362.397 31.67C362.178 31.6684 362.794 32.4723 363.765 33.4564C370.452 40.2334 375.524 54.0016 377.693 71.2674C378.361 76.5878 378.629 90.0327 378.173 95.4233C377.087 108.278 375.378 112.847 363.135 135.635C361.864 138.001 360.857 139.966 360.897 140.002C360.937 140.038 362.42 139.834 364.191 139.55L367.413 139.034L368.955 136.016C369.802 134.356 372.799 129.626 375.613 125.506C378.428 121.386 381.404 116.932 382.227 115.608C383.824 113.039 384.344 112.647 383.371 114.746C383.045 115.45 377.646 128.455 371.373 143.646C365.101 158.838 359.724 171.828 359.425 172.515C358.878 173.769 357.778 174.267 357.778 173.26C357.778 172.984 359.022 168.304 360.542 162.861C362.496 155.863 363.512 152.72 364.013 152.132C364.544 151.506 365.02 149.897 365.931 145.643C366.597 142.531 367.107 139.945 367.064 139.895C367.021 139.845 365.632 140.026 363.978 140.297C356.061 141.594 350.46 141.595 342.163 140.301C340.346 140.017 338.802 139.848 338.731 139.925C338.661 140.003 339.43 142.893 340.44 146.349C342.933 154.872 347.794 172.083 347.98 173.043C348.108 173.704 348.024 173.803 347.42 173.708C346.838 173.616 346.428 172.908 345.139 169.769C339.785 156.731 322.885 115.891 321.881 113.565C321.218 112.029 320.727 110.716 320.79 110.647C320.853 110.578 321.247 111.086 321.665 111.776C322.083 112.466 324.179 115.502 326.323 118.522C333.369 128.447 336.567 133.717 337.853 137.524L338.37 139.055L341.614 139.552C343.398 139.825 344.884 140.03 344.916 140.009C344.948 139.987 343.666 137.502 342.068 134.487C333.279 117.905 329.29 106.094 327.965 92.7315C327.516 88.2004 327.773 76.672 328.444 71.2674C330.575 54.1108 335.687 40.2254 342.367 33.4564C344.389 31.4071 344.238 31.31 340.569 32.2976ZM332.217 35.279C317.233 42.6796 307.909 57.956 307.815 75.2607C307.794 79.1535 307.905 80.2421 308.647 83.4137C309.58 87.4034 311.429 92.7871 313.391 97.224C314.598 99.9527 314.636 99.9996 314.468 98.5551C313.206 87.7265 313.458 78.4261 315.26 69.2841C317.989 55.4449 324.778 42.9232 333.428 35.7745C334.833 34.6138 335.859 33.6697 335.708 33.677C335.557 33.6846 333.986 34.4054 332.217 35.279ZM371.017 34.2697C371.176 34.4197 372.214 35.3179 373.324 36.2657C378.219 40.4433 383.312 47.6692 386.379 54.7873C389.2 61.3337 391.351 69.7965 392.109 77.3276C392.552 81.7246 392.499 91.3025 392.01 95.5601C391.788 97.4819 391.637 99.0948 391.672 99.1441C391.708 99.1937 392.649 96.9015 393.763 94.0506C397.4 84.7482 398.533 78.8278 397.942 72.2225C396.703 58.3823 390.632 47.0573 380.329 39.3701C377.247 37.07 369.48 32.8158 371.017 34.2697ZM343.607 154.211C348.637 172.349 349.072 173.763 349.62 173.763C349.927 173.763 350.178 173.621 350.178 173.448C350.178 173.121 345.902 153.325 345.818 153.26C345.791 153.24 345.195 153.127 344.492 153.009L343.214 152.795L343.607 154.211ZM346.834 153.577C346.834 153.823 347.791 158.403 348.962 163.756C350.132 169.108 351.09 173.557 351.09 173.642C351.09 173.727 351.876 173.751 352.838 173.696L354.586 173.596L356.782 163.613C357.989 158.122 358.981 153.517 358.986 153.38C358.99 153.243 356.258 153.13 352.914 153.13C348.031 153.13 346.834 153.218 346.834 153.577ZM359.632 154.378C358.697 158.301 355.65 172.716 355.65 173.217C355.65 173.601 355.836 173.772 356.176 173.7C356.581 173.615 357.313 171.401 359.35 164.109C360.807 158.894 362.078 154.291 362.174 153.879C362.334 153.196 362.244 153.13 361.14 153.13C359.997 153.13 359.913 153.2 359.632 154.378Z" fill="#EFEFEF"/>
<path d="M364.788 141.475C356.534 143.909 349.78 143.503 341.15 141.475C341.275 143.774 341.976 149.022 343.777 151.618C348.404 151.889 358.635 152.186 362.537 151.213C363.287 150.807 364.788 148.291 364.788 141.475Z" fill="#F63859"/>
<path d="M347.28 184.388C346.878 180.685 346.905 178.659 347.28 175.056H359.286C359.293 176.949 359.463 181.709 358.536 185.605C355.409 186.146 348.78 186.66 347.28 184.388Z" fill="#F63859"/>
<path d="M322.9 55.1222C325.028 49.3696 331.655 37.0756 341.138 33.9199C337.795 37.7002 330.834 47.2329 329.74 55.1222H322.9Z" fill="#F63859"/>
<path d="M348.304 33.4336H346.025C342.985 36.0633 336.45 44.084 334.626 55.1289H343.745C344.657 49.0476 346.845 36.1948 348.304 33.4336Z" fill="#F63859"/>
<path d="M355.144 33.4336H351.496C350.432 37.0495 348.304 46.4508 348.304 55.1289H358.791C358.487 50.3625 357.332 39.3505 355.144 33.4336Z" fill="#F63859"/>
<path d="M361.527 33.4336H357.879C358.943 34.7485 361.253 40.9283 361.983 55.1289H372.926C371.558 50.3625 367.363 39.3505 361.527 33.4336Z" fill="#F63859"/>
<path d="M365.63 33.4336H364.263C366.086 34.9128 371.011 41.3228 376.117 55.1289H385.236C382.501 49.8694 374.749 38.1671 365.63 33.4336Z" fill="#F63859"/>
<path d="M392.531 55.1289H387.516C386.148 51.3487 381.315 42.1117 372.926 35.4059C378.549 38.5287 390.343 46.8452 392.531 55.1289Z" fill="#F63859"/>
<path d="M313.652 55.1289C316.54 50.5269 324.686 40.1394 334.17 35.4059C331.434 37.2714 324.504 43.8277 318.668 55.1289H313.652Z" fill="#F63859"/>
<path fill-rule="evenodd" clip-rule="evenodd" d="M1777.06 248.573C1775.82 248.778 1771.62 253.28 1769.67 256.488C1763.62 266.437 1760 281.395 1759.31 299.25C1758.72 314.779 1762.26 329.183 1770.84 346.155C1772 348.452 1773.7 351.904 1774.63 353.826C1775.55 355.747 1776.33 357.353 1776.36 357.395C1776.38 357.436 1777.39 357.57 1778.59 357.692L1780.78 357.915L1780.34 356.551C1778.41 350.574 1776.64 336.096 1775.89 320.215C1775.42 310.308 1775.68 285.679 1776.35 276.954C1777.25 265.25 1778.83 254.979 1780.45 250.305C1780.8 249.313 1781.08 248.464 1781.08 248.419C1781.08 248.296 1778.02 248.413 1777.06 248.573ZM1781.58 249.251C1779.93 252.754 1778.03 264.512 1777.14 276.621C1775.14 304.05 1776.67 339.978 1780.49 355.493L1781.15 358.152H1783.66H1786.16L1786.81 355.905C1788.64 349.495 1789.92 340.195 1791.02 325.373C1791.67 316.509 1791.76 290.742 1791.17 281.779C1790.1 265.579 1788.3 253.372 1786.36 249.251C1785.96 248.396 1785.8 248.335 1783.97 248.335C1782.14 248.335 1781.98 248.396 1781.58 249.251ZM1786.86 248.419C1786.86 248.464 1787.14 249.313 1787.48 250.305C1791.94 263.135 1793.74 301.966 1791.25 331.363C1790.43 340.97 1788.81 351.366 1787.46 355.668C1787.13 356.728 1786.91 357.656 1786.98 357.732C1787.05 357.807 1788.03 357.745 1789.16 357.594L1791.22 357.32L1796.05 348.002C1804.13 332.402 1806.45 326.578 1807.67 318.884C1808.57 313.141 1808.91 304.326 1808.5 296.833C1807.37 275.892 1802.24 259.549 1794.18 251.252C1792.07 249.081 1791.58 248.738 1790.33 248.55C1788.91 248.337 1786.86 248.259 1786.86 248.419ZM1771.47 249.632C1764.58 251.486 1756.48 260.542 1751.43 272.038C1747.23 281.607 1745.36 291.303 1745.37 303.41C1745.38 311.535 1745.99 316.945 1747.23 319.882C1749.4 325.022 1754.11 336.441 1772.08 380.083L1776.52 390.866V396.494C1776.52 399.889 1776.65 402.388 1776.85 402.794C1777.47 404.066 1778.93 404.408 1783.76 404.408C1788.47 404.408 1790 404.101 1790.51 403.063C1790.67 402.729 1790.81 399.848 1790.81 396.662V390.869L1795.48 379.585C1798.05 373.379 1802.78 361.937 1806 354.158C1817.53 326.23 1818.47 324.001 1819.97 321.047C1822.09 316.89 1822.57 313.559 1822.55 303.077C1822.54 294.836 1822.05 290.329 1820.45 283.716C1817.26 270.512 1810.23 258.658 1801.95 252.499C1799.85 250.94 1798.87 250.449 1796.54 249.8C1794.98 249.364 1793.52 249.006 1793.3 249.004C1793.08 249.002 1793.7 249.806 1794.67 250.79C1801.35 257.567 1806.43 271.336 1808.6 288.601C1809.26 293.922 1809.53 307.367 1809.08 312.757C1807.99 325.612 1806.28 330.181 1794.04 352.969C1792.77 355.335 1791.76 357.3 1791.8 357.336C1791.84 357.372 1793.32 357.168 1795.09 356.884L1798.32 356.368L1799.86 353.35C1800.7 351.69 1803.7 346.96 1806.52 342.84C1809.33 338.72 1812.31 334.266 1813.13 332.942C1814.73 330.373 1815.25 329.981 1814.27 332.08C1813.95 332.784 1808.55 345.789 1802.28 360.98C1796 376.171 1790.63 389.162 1790.33 389.849C1789.78 391.103 1788.68 391.601 1788.68 390.594C1788.68 390.318 1789.92 385.638 1791.44 380.195C1793.4 373.197 1794.41 370.054 1794.92 369.466C1795.45 368.84 1795.92 367.231 1796.83 362.977C1797.5 359.865 1798.01 357.279 1797.97 357.229C1797.92 357.179 1796.53 357.36 1794.88 357.631C1786.96 358.928 1781.36 358.929 1773.07 357.635C1771.25 357.351 1769.7 357.182 1769.63 357.259C1769.56 357.337 1770.33 360.227 1771.34 363.683C1773.84 372.206 1778.7 389.417 1778.88 390.377C1779.01 391.038 1778.93 391.137 1778.32 391.042C1777.74 390.95 1777.33 390.242 1776.04 387.103C1770.69 374.065 1753.79 333.225 1752.78 330.899C1752.12 329.363 1751.63 328.05 1751.69 327.981C1751.76 327.912 1752.15 328.42 1752.57 329.11C1752.98 329.8 1755.08 332.836 1757.23 335.856C1764.27 345.781 1767.47 351.051 1768.75 354.858L1769.27 356.389L1772.52 356.886C1774.3 357.159 1775.79 357.364 1775.82 357.343C1775.85 357.321 1774.57 354.836 1772.97 351.821C1764.18 335.239 1760.19 323.428 1758.87 310.065C1758.42 305.534 1758.68 294.006 1759.35 288.601C1761.48 271.445 1766.59 257.559 1773.27 250.79C1775.29 248.741 1775.14 248.644 1771.47 249.632ZM1763.12 252.613C1748.13 260.014 1738.81 275.29 1738.72 292.595C1738.7 296.488 1738.81 297.576 1739.55 300.748C1740.48 304.737 1742.33 310.121 1744.29 314.558C1745.5 317.287 1745.54 317.334 1745.37 315.889C1744.11 305.061 1744.36 295.76 1746.16 286.618C1748.89 272.779 1755.68 260.257 1764.33 253.108C1765.74 251.948 1766.76 251.004 1766.61 251.011C1766.46 251.019 1764.89 251.739 1763.12 252.613ZM1801.92 251.604C1802.08 251.754 1803.12 252.652 1804.23 253.6C1809.12 257.777 1814.21 265.003 1817.28 272.121C1820.1 278.668 1822.25 287.131 1823.01 294.662C1823.45 299.059 1823.4 308.637 1822.91 312.894C1822.69 314.816 1822.54 316.429 1822.57 316.478C1822.61 316.528 1823.55 314.235 1824.67 311.385C1828.3 302.082 1829.44 296.162 1828.84 289.556C1827.61 275.716 1821.53 264.391 1811.23 256.704C1808.15 254.404 1800.38 250.15 1801.92 251.604ZM1774.51 371.545C1779.54 389.683 1779.97 391.096 1780.52 391.096C1780.83 391.096 1781.08 390.955 1781.08 390.782C1781.08 390.455 1776.8 370.659 1776.72 370.594C1776.69 370.574 1776.1 370.461 1775.39 370.343L1774.12 370.129L1774.51 371.545ZM1777.74 370.911C1777.74 371.157 1778.69 375.737 1779.86 381.09C1781.03 386.442 1781.99 390.891 1781.99 390.976C1781.99 391.061 1782.78 391.085 1783.74 391.03L1785.49 390.93L1787.68 380.947C1788.89 375.456 1789.88 370.851 1789.89 370.714C1789.89 370.577 1787.16 370.464 1783.82 370.464C1778.93 370.464 1777.74 370.552 1777.74 370.911ZM1790.53 371.712C1789.6 375.635 1786.55 390.05 1786.55 390.551C1786.55 390.935 1786.74 391.106 1787.08 391.034C1787.48 390.949 1788.22 388.735 1790.25 381.443C1791.71 376.228 1792.98 371.625 1793.08 371.213C1793.24 370.53 1793.15 370.464 1792.04 370.464C1790.9 370.464 1790.82 370.534 1790.53 371.712Z" fill="#EFEFEF"/>
<path d="M1795.69 358.809C1787.44 361.243 1780.68 360.837 1772.05 358.809C1772.18 361.108 1772.88 366.356 1774.68 368.952C1779.31 369.223 1789.54 369.52 1793.44 368.547C1794.19 368.141 1795.69 365.625 1795.69 358.809Z" fill="#F63859"/>
<path d="M1778.18 401.721C1777.78 398.018 1777.81 395.992 1778.18 392.389H1790.19C1790.2 394.282 1790.36 399.042 1789.44 402.938C1786.31 403.479 1779.68 403.993 1778.18 401.721Z" fill="#F63859"/>
<path d="M1753.8 272.456C1755.93 266.704 1762.55 254.41 1772.04 251.254C1768.7 255.034 1761.73 264.567 1760.64 272.456H1753.8Z" fill="#F63859"/>
<path d="M1779.21 250.768H1776.93C1773.89 253.397 1767.35 261.418 1765.53 272.463H1774.65C1775.56 266.382 1777.75 253.529 1779.21 250.768Z" fill="#F63859"/>
<path d="M1786.05 250.768H1782.4C1781.33 254.383 1779.21 263.785 1779.21 272.463H1789.69C1789.39 267.696 1788.23 256.684 1786.05 250.768Z" fill="#F63859"/>
<path d="M1792.43 250.768H1788.78C1789.85 252.082 1792.16 258.262 1792.89 272.463H1803.83C1802.46 267.696 1798.27 256.684 1792.43 250.768Z" fill="#F63859"/>
<path d="M1796.53 250.768H1795.16C1796.99 252.247 1801.91 258.657 1807.02 272.463H1816.14C1813.4 267.203 1805.65 255.501 1796.53 250.768Z" fill="#F63859"/>
<path d="M1823.43 272.463H1818.42C1817.05 268.683 1812.22 259.446 1803.83 252.74C1809.45 255.863 1821.25 264.179 1823.43 272.463Z" fill="#F63859"/>
<path d="M1744.55 272.463C1747.44 267.861 1755.59 257.473 1765.07 252.74C1762.34 254.605 1755.41 261.162 1749.57 272.463H1744.55Z" fill="#F63859"/>
<path fill-rule="evenodd" clip-rule="evenodd" d="M241.641 66.4688C237.263 67.5347 237.077 68.8635 240.208 76.7453C241.764 80.6594 243.19 82.2932 244.817 82.0232C246.112 81.8067 250.505 81.1799 254.578 80.6284L261.985 79.6254L260.804 73.9001C260.154 70.752 259.228 67.5522 258.745 66.7904C257.748 65.2153 247.575 65.0246 241.641 66.4688ZM15.3946 133.68C13.441 134.966 10.3065 137.573 8.4295 139.474L5.01589 142.928L8.97915 146.466C11.1573 148.411 13.1875 150.416 13.4904 150.922C14.0213 151.813 36.9228 145.82 36.9586 144.781C36.9875 143.942 21.7743 131.92 20.3006 131.618C19.5552 131.465 17.3481 132.393 15.3946 133.68ZM180.805 191.728C173.11 194.187 172.877 194.563 176.349 198.955C178.118 201.192 180.96 205.729 182.667 209.036C185.715 214.943 185.863 215.036 190.946 214.335C193.791 213.944 200.596 213.474 206.067 213.292C211.538 213.111 216.32 212.778 216.693 212.553C217.064 212.327 213.354 207.308 208.446 201.398L199.524 190.653L192.717 190.376C188.929 190.221 183.647 190.821 180.805 191.728ZM-24.2381 233.94C-25.4497 234.823 -31.8039 237.118 -38.3588 239.038L-50.2776 242.531L-38.5392 246.111C-32.0847 248.08 -23.5506 250.281 -19.5754 251.001C-13.0647 252.183 -11.9926 252.118 -8.7645 250.349C-4.40643 247.959 -0.424454 243.473 -0.429558 240.958C-0.432961 239.434 -11.152 235.066 -20.8738 232.626C-21.5137 232.465 -23.0282 233.056 -24.2381 233.94ZM-84.4189 416.088C-89.0815 420.936 -93.198 429.508 -91.8706 431.604C-91.0283 432.934 -79.4499 436.729 -72.2789 438.025C-68.9929 438.619 -68.1114 438.207 -66.4557 435.298C-65.3836 433.411 -61.7011 428.573 -58.2722 424.544L-52.0405 417.218L-64.0954 414.762C-70.727 413.412 -77.0505 412.159 -78.1498 411.977C-79.2474 411.796 -82.0688 413.646 -84.4189 416.088ZM146.429 517.171C142.214 519.974 139.114 523.478 139.114 525.435C139.114 526.229 143.831 528.352 149.596 530.152C159.459 533.235 160.32 533.333 164.152 531.811C170.093 529.452 170.428 527.938 166.111 522.941C163.982 520.476 162.206 518.095 162.163 517.649C162.044 516.385 157.346 514.885 153.449 514.867C151.507 514.859 148.347 515.895 146.429 517.171ZM-1.99172 520.336C-4.22436 521.688 -4.43196 525.16 -2.28101 525.16C-1.42845 525.16 2.41228 528.175 6.25472 531.861C11.5385 536.929 14.1898 538.561 17.1423 538.561C20.658 538.561 21.0579 538.065 21.1702 533.567C21.2382 530.819 22.2133 527.532 23.3347 526.262C24.4579 524.992 24.999 523.725 24.5396 523.447C24.0801 523.169 18.3368 522.104 11.7751 521.082C3.23421 519.751 -0.676308 519.539 -1.99172 520.336ZM258.828 560.659C252.837 562.464 251.887 563.175 252.563 565.363C253.002 566.78 252.629 569.896 251.736 572.287L250.111 576.634L255.449 574.964C273.849 569.206 277.309 565.814 269.719 560.975L265.891 558.534L258.828 560.659ZM-51.4773 603.98C-51.4773 604.81 -49.9474 607.964 -48.079 610.99C-44.7589 616.366 -44.5445 616.482 -38.7196 616.07C-35.4404 615.838 -32.7585 615.441 -32.7585 615.186C-32.7585 614.933 -33.623 612.645 -34.6798 610.103C-36.0905 606.711 -37.879 605.081 -41.4015 603.977C-47.5293 602.058 -51.4773 602.059 -51.4773 603.98Z" fill="#F63859"/>
<path d="M445.553 50.0337C446.71 47.8649 450.27 42.7261 453.464 38.6162C456.657 34.5062 459.878 31.1426 460.623 31.1426C461.369 31.1426 462.88 32.9641 463.981 35.1897C465.082 37.4163 468.524 41.5262 471.633 44.3239C476.713 48.8978 477.036 49.607 474.836 51.3584C473.49 52.4294 470.961 55.2766 469.215 57.6867C467.403 60.1896 464.886 62.0677 463.344 62.0677C459.356 62.0677 452.004 59.5267 447.452 56.5744C443.758 54.1787 443.611 53.6736 445.553 50.0337Z" fill="#C1C1C1"/>
<path d="M932.243 -5.63033C933.4 -7.79921 936.96 -12.9379 940.154 -17.0479C943.346 -21.1579 946.567 -24.5215 947.313 -24.5215C948.058 -24.5215 949.569 -22.7 950.67 -20.4744C951.771 -18.2478 955.214 -14.1378 958.323 -11.3401C963.402 -6.76631 963.726 -6.0571 961.525 -4.30571C960.179 -3.23467 957.651 -0.387482 955.905 2.02262C954.092 4.5255 951.576 6.40368 950.034 6.40368C946.045 6.40368 938.694 3.86267 934.142 0.910349C930.447 -1.48532 930.301 -1.99043 932.243 -5.63033Z" fill="#F63859"/>
<path d="M1521.98 139.675C1520.89 135.706 1519.45 128.56 1518.78 123.793C1517.62 115.563 1517.72 115.167 1520.76 115.945C1522.52 116.396 1529.32 117.556 1535.87 118.525L1547.79 120.286L1548.8 126.372C1549.36 129.72 1550.39 134.871 1551.08 137.82L1552.34 143.18L1545.92 144.805C1542.39 145.698 1536 146.533 1531.73 146.66L1523.96 146.891L1521.98 139.675Z" fill="#F63859"/>
<path d="M1521.98 139.675C1520.89 135.706 1519.45 128.56 1518.78 123.793C1517.62 115.563 1517.72 115.167 1520.76 115.945C1522.52 116.396 1529.32 117.556 1535.87 118.525L1547.79 120.286L1548.8 126.372C1549.36 129.72 1550.39 134.871 1551.08 137.82L1552.34 143.18L1545.92 144.805C1542.39 145.698 1536 146.533 1531.73 146.66L1523.96 146.891L1521.98 139.675Z" fill="#F63859"/>
<path d="M618.179 53.0792C617.388 50.1962 616.341 45.0046 615.852 41.542C615.011 35.5633 615.083 35.2758 617.292 35.8411C618.571 36.1684 623.512 37.0116 628.271 37.7155L636.924 38.9945L637.663 43.4156C638.07 45.8478 638.814 49.5897 639.316 51.7313L640.23 55.6252L635.568 56.8054C633.003 57.4546 628.366 58.0612 625.262 58.1533L619.619 58.321L618.179 53.0792Z" fill="#F63859"/>
<path d="M1426.21 68.5076C1432.76 66.5871 1439.12 64.2925 1440.33 63.4091C1441.54 62.5256 1443.05 61.9339 1443.69 62.0947C1453.42 64.5347 1464.14 68.9034 1464.14 70.427C1464.14 72.9423 1460.16 77.4285 1455.8 79.8179C1452.58 81.5869 1451.5 81.6518 1444.99 80.4705C1441.02 79.7499 1432.48 77.5491 1426.03 75.5802L1414.29 72.0001L1426.21 68.5076Z" fill="#F63859"/>
<path d="M145.457 148.549C149.55 147.349 153.518 145.916 154.275 145.365C155.03 144.813 155.976 144.443 156.376 144.544C162.447 146.068 169.141 148.796 169.143 149.747C169.146 151.318 166.659 154.119 163.938 155.612C161.922 156.716 161.252 156.757 157.187 156.019C154.704 155.569 149.375 154.195 145.344 152.965L138.014 150.73L145.457 148.549Z" fill="#C1C1C1"/>
<path d="M272.445 47.9346L281.444 44.7865C291.283 41.3455 292.978 41.5579 297.445 46.7904C301.201 51.19 300.493 52.2539 292.182 54.7C282.591 57.5225 281.672 57.5183 280.234 54.6475C279.596 53.3723 277.583 51.3395 275.759 50.1314L272.445 47.9346Z" fill="#C1C1C1"/>
<path d="M1480.66 248.948L1489.65 245.8C1499.49 242.359 1501.19 242.572 1505.66 247.804C1509.41 252.204 1508.7 253.268 1500.39 255.714C1490.8 258.536 1489.88 258.532 1488.44 255.661C1487.81 254.386 1485.79 252.353 1483.97 251.145L1480.66 248.948Z" fill="#F63859"/>
<path d="M369.443 14.3026C369.443 13.178 375.389 11.3781 388.162 8.63817C402.797 5.49824 403.431 5.5405 402.434 9.57211C401.978 11.4152 402.739 15.4737 404.122 18.5919C405.508 21.7102 406.12 24.5244 405.484 24.846C404.849 25.1687 400.266 26.0295 395.302 26.7603C387.09 27.9685 385.955 27.9159 382.708 26.1748C378.946 24.1574 369.443 15.6541 369.443 14.3026Z" fill="#F63859"/>
<path d="M775.479 84.5145C775.479 83.3899 781.424 81.5901 794.197 78.8501C808.832 75.7101 809.467 75.7524 808.469 79.784C808.013 81.6272 808.774 85.6856 810.158 88.8039C811.543 91.9221 812.155 94.7363 811.519 95.058C810.884 95.3806 806.302 96.2414 801.338 96.9722C793.125 98.1804 791.99 98.1278 788.743 96.3867C784.981 94.3694 775.479 85.866 775.479 84.5145Z" fill="#F63859"/>
<path d="M355.359 107.371C351.382 104.149 344.683 98.2015 340.472 94.1544C333.202 87.1661 332.992 86.7865 336.283 86.6318C338.187 86.5424 345.109 85.681 351.664 84.7189L363.58 82.9687L369.098 88.0918C372.134 90.9101 376.95 95.2007 379.799 97.6274L384.98 102.039L380.511 105.268C378.053 107.044 373.016 109.561 369.316 110.863L362.591 113.229L355.359 107.371Z" fill="#C1C1C1"/>
<path d="M1335.54 79.4659C1331.57 76.2436 1324.87 70.2962 1320.66 66.2491C1313.39 59.2608 1313.18 58.8812 1316.47 58.7265C1318.37 58.6371 1325.29 57.7757 1331.85 56.8137L1343.76 55.0634L1349.28 60.1865C1352.32 63.0048 1357.13 67.2955 1359.98 69.7221L1365.16 74.1337L1360.7 77.3622C1358.24 79.1386 1353.2 81.6562 1349.5 82.9577L1342.77 85.3241L1335.54 79.4659Z" fill="#F63859"/>
<path d="M1046.06 75.4157C1043.16 75.4157 1017.79 50.9735 1017.79 48.183C1017.79 46.8635 1019.82 46.5636 1028.43 46.6099C1042.44 46.6873 1050.07 48.3881 1054.32 52.3826C1057.3 55.1793 1066.96 65.3619 1068.48 67.304C1068.76 67.6617 1066.85 68.2699 1064.24 68.6575C1061.62 69.0441 1056.66 70.7223 1053.2 72.3881C1049.75 74.0529 1046.53 75.4157 1046.06 75.4157Z" fill="#F63859"/>
<path d="M678.49 175.408C675.594 175.408 650.227 150.966 650.227 148.175C650.227 146.856 652.258 146.556 660.862 146.602C674.871 146.679 682.503 148.38 686.754 152.375C689.732 155.171 699.396 165.354 700.917 167.296C701.196 167.654 699.287 168.262 696.673 168.65C694.057 169.036 689.092 170.714 685.637 172.38C682.181 174.045 678.967 175.408 678.49 175.408Z" fill="#F63859"/>
<path d="M1453.76 210.456C1456.66 210.456 1482.03 186.014 1482.03 183.223C1482.03 181.904 1480 181.604 1471.39 181.65C1457.38 181.727 1449.75 183.428 1445.5 187.423C1442.52 190.219 1432.86 200.402 1431.34 202.344C1431.06 202.702 1432.97 203.31 1435.58 203.698C1438.2 204.084 1443.16 205.762 1446.62 207.428C1450.07 209.093 1453.29 210.456 1453.76 210.456Z" fill="#C1C1C1"/>
<path fill-rule="evenodd" clip-rule="evenodd" d="M1568.45 -71.1728C1564.07 -70.1069 1563.88 -68.7781 1567.02 -60.8963C1568.57 -56.9822 1570 -55.3484 1571.62 -55.6184C1572.92 -55.8349 1577.31 -56.4617 1581.38 -57.0132L1588.79 -58.0162L1587.61 -63.7415C1586.96 -66.8896 1586.04 -70.0894 1585.55 -70.8512C1584.55 -72.4263 1574.38 -72.617 1568.45 -71.1728ZM1826.95 -51.5002C1822.69 -44.6081 1822.5 -44.873 1832.98 -43.1061C1838.34 -42.2021 1843.23 -41.6485 1843.83 -41.8753C1845.3 -42.4258 1849.48 -51.5528 1848.53 -52.1311C1848.11 -52.3796 1843.44 -52.8929 1838.13 -53.2702C1829.03 -53.9186 1828.39 -53.8165 1826.95 -51.5002ZM1427.06 -45.2441L1418.06 -42.0959L1421.37 -39.8992C1423.2 -38.691 1425.21 -36.6582 1425.85 -35.3831C1427.29 -32.5122 1428.21 -32.5081 1437.8 -35.3305C1446.11 -37.7767 1446.82 -38.8405 1443.06 -43.2401C1438.59 -48.4727 1436.9 -48.685 1427.06 -45.2441ZM1898.76 -41.9485C1894.88 -41.3145 1891.53 -40.4352 1891.32 -39.9961C1891.1 -39.557 1891.83 -36.3882 1892.95 -32.9544C1894.5 -28.1724 1895.56 -26.8467 1897.48 -27.292C1898.85 -27.6126 1904.15 -28.6084 1909.25 -29.5073L1918.52 -31.1402L1916.21 -34.4213C1909.18 -44.3844 1910.4 -43.8545 1898.76 -41.9485ZM1724.58 -28.5857C1711.81 -25.8458 1705.86 -24.0459 1705.86 -22.9213C1705.86 -21.5698 1715.36 -13.0665 1719.13 -11.0491C1722.37 -9.30802 1723.51 -9.25544 1731.72 -10.4636C1736.68 -11.1945 1741.27 -12.0552 1741.9 -12.3779C1742.54 -12.6995 1741.92 -15.5137 1740.54 -18.632C1739.16 -21.7502 1738.4 -25.8087 1738.85 -27.6518C1739.85 -31.6834 1739.21 -31.7257 1724.58 -28.5857ZM1642.9 -27.3096C1642.9 -24.5191 1668.27 -0.0768509 1671.16 -0.0768509C1671.64 -0.0768509 1674.85 -1.43961 1678.31 -3.10442C1681.76 -4.77026 1686.73 -6.44847 1689.34 -6.83504C1691.96 -7.22263 1693.87 -7.83083 1693.59 -8.18853C1692.07 -10.1306 1682.4 -20.3133 1679.42 -23.1099C1675.17 -27.1044 1667.54 -28.8053 1653.53 -28.8826C1644.93 -28.929 1642.9 -28.629 1642.9 -27.3096ZM1342.2 -3.96208C1340.25 -2.6756 1337.11 -0.0686035 1335.24 1.83226L1331.82 5.28661L1335.79 8.82445C1337.96 10.7696 1339.99 12.7746 1340.3 13.2808C1340.83 14.1714 1363.73 8.17811 1363.77 7.13902C1363.79 6.29992 1348.58 -5.72173 1347.11 -6.02376C1346.36 -6.17632 1344.16 -5.24857 1342.2 -3.96208ZM2070.45 12.8952C2064.04 14.5951 2063.87 15.0507 2068.4 18.3504C2071.6 20.675 2072.16 20.7337 2079.41 19.505C2087.65 18.1071 2088.49 17.099 2084.39 13.5539C2081.38 10.948 2078.35 10.8047 2070.45 12.8952ZM1161.41 35.0985C1152.89 40.9619 1152.59 41.3546 1155.6 42.7813C1164.39 46.9572 1164.96 46.9201 1172.8 41.6762C1184.37 33.9315 1184.61 33.3141 1176.95 30.9452L1170.39 28.9196L1161.41 35.0985ZM1950.86 52.6866C1946.53 55.9503 1945.73 57.1203 1947.58 57.4934C1948.92 57.7656 1952.19 59.2995 1954.84 60.9024L1959.65 63.8186L1966.34 60.5612C1970.02 58.7706 1973.03 56.7347 1973.03 56.0379C1973.03 54.4421 1961.75 48.3726 1958.79 48.3726C1957.58 48.3726 1954 50.3136 1950.86 52.6866ZM1507.61 54.0865C1499.92 56.5451 1499.68 56.9213 1503.16 61.3137C1504.93 63.5506 1507.77 68.0874 1509.47 71.3943C1512.52 77.301 1512.67 77.3948 1517.75 76.6938C1520.6 76.3021 1527.4 75.8321 1532.87 75.6506C1538.35 75.4692 1543.13 75.1362 1543.5 74.9115C1543.87 74.6857 1540.16 69.6666 1535.25 63.7568L1526.33 53.0113L1519.52 52.7341C1515.74 52.5794 1510.45 53.1794 1507.61 54.0865ZM1831.86 58.1975C1827.68 59.5819 1823.55 60.8591 1822.68 61.0354C1821.04 61.3673 1833.1 73.1127 1835.08 73.1127C1835.69 73.1127 1839.35 71.1417 1843.23 68.7316L1850.27 64.3506L1845.96 59.9695C1843.59 57.5594 1841.15 55.6091 1840.55 55.6338C1839.94 55.6596 1836.03 56.8131 1831.86 58.1975ZM1302.57 96.2983C1301.36 97.1818 1295 99.4764 1288.45 101.397L1276.53 104.889L1288.27 108.469C1294.72 110.438 1303.26 112.639 1307.23 113.36C1313.74 114.541 1314.81 114.476 1318.04 112.707C1322.4 110.318 1326.38 105.832 1326.38 103.316C1326.37 101.793 1315.65 97.424 1305.93 94.984C1305.29 94.8232 1303.78 95.4149 1302.57 96.2983ZM1636.94 137.828C1630.39 143.842 1624.29 149.347 1623.38 150.063C1622.24 150.97 1623.01 152.201 1625.94 154.127C1630.6 157.194 1643.76 161.17 1646.21 160.252C1648.15 159.526 1664.13 142.714 1666.55 138.847C1668.08 136.402 1667.82 135.877 1664.54 134.86C1662.46 134.216 1658.09 132.16 1654.81 130.291L1648.85 126.894L1636.94 137.828ZM1976.32 140.757C1975.01 142.243 1970.55 145.263 1966.41 147.47L1958.89 151.481L1969.93 158.169C1976 161.847 1982.07 164.857 1983.42 164.857C1987.32 164.857 1997.37 159.3 2001.37 154.94L2005.03 150.941L1993.05 144.498C1986.47 140.955 1980.55 138.056 1979.89 138.056C1979.24 138.056 1977.63 139.271 1976.32 140.757ZM1093.7 162.023L1088.38 165.373L1091.84 167.94C1093.75 169.352 1097.16 172.725 1099.43 175.435L1103.55 180.363L1109.46 177.507C1112.71 175.936 1115.37 174.161 1115.37 173.563C1115.37 172.257 1101.32 158.672 1099.97 158.672C1099.45 158.672 1096.63 160.18 1093.7 162.023ZM1294.51 164.483C1289 166.129 1275.33 174.343 1275.33 176.01C1275.33 176.499 1279.35 177.428 1284.26 178.075C1295 179.488 1309.31 180.567 1306.52 179.754C1305.28 179.391 1307.35 177.351 1312.02 174.334C1316.14 171.673 1319.53 168.889 1319.54 168.147C1319.56 167.368 1320.47 167.106 1321.7 167.525C1323.12 168.009 1323.26 167.909 1322.13 167.225C1319.81 165.829 1306.58 162.791 1302.95 162.819C1301.33 162.832 1297.53 163.581 1294.51 164.483ZM1878.62 190.228C1873.02 191.048 1867.81 192.102 1867.04 192.572C1863.12 194.946 1867.58 231.388 1871.78 231.319C1872.71 231.303 1879.22 230.197 1886.24 228.859C1893.26 227.522 1900.05 226.253 1901.32 226.041C1902.97 225.764 1903.32 224.695 1902.54 222.314C1901.93 220.478 1900.98 212.135 1900.43 203.772L1899.43 188.567L1894.11 188.652C1891.19 188.7 1884.22 189.409 1878.62 190.228ZM2091.92 205.057L2087.43 210.191L2100.39 217.864C2109.8 223.439 2113.91 225.252 2115.42 224.496C2118.47 222.964 2123.35 214.66 2122.23 212.903C2121.3 211.422 2099.21 199.898 2097.35 199.914C2096.83 199.919 2094.38 202.234 2091.92 205.057ZM1988.34 287.847C1988.34 289.501 2000.7 301.368 2003.53 302.426C2006.03 303.363 2013.85 302.255 2018 300.376C2021.22 298.916 2021.2 298.795 2017.28 293.724L2013.29 288.558H2004.11C1999.06 288.558 1993.45 288.078 1991.63 287.491C1989.12 286.676 1988.34 286.759 1988.34 287.847ZM2022.51 303.021C2014.62 304.675 2007.46 306.463 2006.58 306.992C2004.62 308.183 2007.93 314.688 2011.39 316.428C2013.33 317.404 2016.24 317.124 2025.34 315.085L2036.84 312.507V306.203C2036.84 302.735 2036.84 299.924 2036.84 299.954C2036.84 299.985 2030.39 301.365 2022.51 303.021ZM2014.29 376.685C2011.25 377.486 2008.76 378.546 2008.76 379.042C2008.76 379.891 2015.51 392.132 2018.12 396.017C2019.26 397.716 2019.58 397.71 2023.83 395.926C2026.31 394.888 2029.64 393.755 2031.23 393.408C2033.94 392.817 2033.92 392.387 2030.95 386.797C2029.2 383.509 2027.31 379.542 2026.74 377.983C2025.58 374.771 2022.7 374.471 2014.29 376.685Z" fill="#C1C1C1"/>
<path d="M1127.04 120.227C1125.95 116.258 1124.51 109.111 1123.83 104.345C1122.68 96.1145 1122.78 95.7187 1125.82 96.497C1127.58 96.9474 1134.38 98.1082 1140.93 99.0772L1152.84 100.838L1153.86 106.924C1154.42 110.272 1155.44 115.423 1156.13 118.371L1157.39 123.732L1150.97 125.356C1147.44 126.25 1141.06 127.085 1136.79 127.212L1129.02 127.443L1127.04 120.227Z" fill="#F63859"/>
<path d="M110.361 62.418L87.6714 67.5099L69.9453 77.6938L97.598 87.8778L110.361 62.418Z" fill="#C0C0C0"/>
<path d="M110.361 62.418L87.6714 67.5099L69.9453 77.6938L97.598 87.8778L110.361 62.418Z" fill="#C0C0C0"/>
<path d="M494.797 159.165H451.38L425.602 175.404L459.636 179.781L494.797 159.165Z" fill="#C0C0C0"/>
<path d="M1175.48 5.38867H1132.06L1106.28 21.6279L1140.32 26.0044L1175.48 5.38867Z" fill="#F63859"/>
<path d="M192.468 34.0137H166.753L163.539 27.8581L175.754 18.6246L192.468 34.0137Z" fill="#C0C0C0"/>
<path d="M485.048 452.277H453.42V294.247H564.063V325.875H485.048V357.503H532.435V389.131H485.048V452.277ZM705.012 389.131C705.012 397.874 703.359 406.103 700.053 413.817C696.747 421.457 692.229 428.143 686.498 433.874C680.768 439.531 674.045 444.012 666.331 447.318C658.69 450.624 650.499 452.277 641.756 452.277C633.013 452.277 624.785 450.624 617.071 447.318C609.43 444.012 602.744 439.531 597.014 433.874C591.357 428.143 586.875 421.457 583.569 413.817C580.263 406.103 578.61 397.874 578.61 389.131V294.247H610.128V389.131C610.128 393.466 610.936 397.543 612.552 401.364C614.242 405.184 616.52 408.527 619.385 411.392C622.25 414.258 625.593 416.535 629.413 418.225C633.307 419.841 637.421 420.649 641.756 420.649C646.091 420.649 650.168 419.841 653.989 418.225C657.882 416.535 661.262 414.258 664.127 411.392C666.992 408.527 669.233 405.184 670.849 401.364C672.539 397.543 673.384 393.466 673.384 389.131V294.247H705.012V389.131ZM858.855 452.277H825.023L764.081 348.246V452.277H732.453V294.247H766.285L827.227 398.388V294.247H858.855V452.277Z" fill="white"/>
<path d="M983.163 452.277H951.535V294.247H1062.18V325.875H983.163V357.503H1030.55V389.131H983.163V452.277ZM1167.97 389.131V357.503C1167.97 353.169 1167.13 349.091 1165.44 345.271C1163.82 341.377 1161.58 337.997 1158.72 335.132C1155.85 332.267 1152.47 330.026 1148.58 328.41C1144.76 326.72 1140.68 325.875 1136.34 325.875C1132.01 325.875 1127.9 326.72 1124 328.41C1120.18 330.026 1116.84 332.267 1113.97 335.132C1111.11 337.997 1108.83 341.377 1107.14 345.271C1105.52 349.091 1104.72 353.169 1104.72 357.503V389.131H1167.97ZM1199.6 452.277H1167.97V420.649H1104.72V452.277H1073.2V357.503C1073.2 348.761 1074.85 340.569 1078.16 332.928C1081.46 325.214 1085.95 318.492 1091.6 312.761C1097.33 307.031 1104.02 302.512 1111.66 299.206C1119.37 295.9 1127.6 294.247 1136.34 294.247C1145.09 294.247 1153.28 295.9 1160.92 299.206C1168.63 302.512 1175.36 307.031 1181.09 312.761C1186.82 318.492 1191.34 325.214 1194.64 332.928C1197.95 340.569 1199.6 348.761 1199.6 357.503V452.277ZM1258.67 452.277H1227.04V294.247H1258.67V452.277ZM1319.72 325.875V389.131H1351.35C1355.68 389.131 1359.76 388.323 1363.58 386.707C1367.4 385.017 1370.74 382.74 1373.61 379.874C1376.48 377.009 1378.72 373.666 1380.33 369.846C1382.02 365.952 1382.87 361.838 1382.87 357.503C1382.87 353.169 1382.02 349.091 1380.33 345.271C1378.72 341.377 1376.48 337.997 1373.61 335.132C1370.74 332.267 1367.4 330.026 1363.58 328.41C1359.76 326.72 1355.68 325.875 1351.35 325.875H1319.72ZM1319.72 452.277H1288.09V294.247H1351.35C1357.15 294.247 1362.74 295.019 1368.1 296.561C1373.46 298.031 1378.46 300.161 1383.09 302.953C1387.79 305.671 1392.05 308.978 1395.87 312.871C1399.76 316.692 1403.07 320.953 1405.79 325.655C1408.58 330.357 1410.71 335.389 1412.18 340.753C1413.72 346.116 1414.5 351.699 1414.5 357.503C1414.5 362.94 1413.8 368.23 1412.4 373.372C1411.08 378.515 1409.13 383.401 1406.56 388.029C1404.06 392.658 1400.98 396.919 1397.3 400.813C1393.63 404.707 1389.52 408.086 1384.96 410.951L1402.48 452.277H1368.87L1355.1 420.429L1319.72 420.649V452.277Z" fill="#ED1338"/>
<path fill-rule="evenodd" clip-rule="evenodd" d="M100.895 176.28C33.3967 179.271 -26.5831 201.196 -74.1402 240.26C-82.5807 247.194 -85.2491 248.972 -87.2249 248.986C-93.1994 249.025 -102.946 255.013 -107.316 261.33C-110.229 265.541 -112.822 272.71 -112.826 276.56C-112.827 278.785 -113.702 280.86 -115.992 284.068C-140.449 318.329 -153.226 353.632 -155.442 393.058L-156.003 403.033L-161.237 403.467C-167.599 403.994 -172.855 406.177 -177.676 410.294C-185.412 416.902 -188.715 425.119 -188.715 437.762C-188.715 450.35 -185.902 457.775 -178.49 464.759C-176.3 466.821 -172.505 469.394 -170.054 470.477C-166.036 472.252 -164.484 472.473 -154.258 472.728L-142.918 473.011L-138.557 483.069C-128.165 507.033 -109.121 533.999 -89.4328 552.626C-85.004 556.815 -84.2721 557.836 -85.6931 557.836C-86.6649 557.836 -89.6386 558.526 -92.3009 559.37C-100.999 562.127 -108.633 570.128 -111.636 579.634C-113.166 584.479 -113.166 600.65 -111.636 605.496C-108.946 614.012 -102.854 621.165 -95.2538 624.731L-90.579 626.924L-72.0187 627.161C-49.9263 627.444 -47.3722 626.973 -39.9828 621.252C-34.1914 616.769 -29.4556 609.153 -28.0774 602.106L-27.1257 597.242L-19.314 600.932C-13.3823 603.734 -11.5975 604.928 -11.8958 605.895C-12.1122 606.596 -25.1944 631.479 -40.9668 661.192L-69.6433 715.215L-104.318 715.22L-138.993 715.224V727.786V740.347H112.235H363.463V727.794V715.241L328.865 715.048L294.267 714.855L265.201 660.175C249.214 630.101 236.127 605.285 236.119 605.028C236.111 604.771 239.608 602.905 243.89 600.882L251.676 597.204L252.281 600.981C253.608 609.273 258.209 616.659 265.373 622.001C271.972 626.922 275.072 627.435 296.489 627.161L315.049 626.924L319.724 624.731C331.62 619.15 337.293 608.762 337.293 592.565C337.293 579.021 334.135 571.237 325.877 564.424C321.731 561.003 314.178 557.836 310.163 557.836C308.742 557.836 309.474 556.815 313.903 552.626C333.518 534.068 352.702 506.907 363.027 483.077L367.388 473.011L378.728 472.728C388.954 472.473 390.506 472.252 394.524 470.477C402.676 466.876 409.042 459.425 411.896 450.142C413.755 444.094 413.595 430.855 411.589 424.725C407.588 412.506 397.804 404.47 385.707 403.467L380.473 403.033L379.849 392.319C377.655 354.68 364.498 317.93 341.758 285.915C338.631 281.512 337.296 278.853 337.295 277.019C337.294 275.58 336.706 272.494 335.989 270.162C332.6 259.141 323.66 251.091 312.455 248.971C308.604 248.242 306.988 247.217 298.062 239.831C260.189 208.494 211.385 187.428 158.468 179.576C141.336 177.034 116.266 175.599 100.895 176.28ZM95.4412 185.707C90.6853 187.19 86.6831 190.02 83.6143 194.071C80.979 197.549 78.2147 204.74 78.2147 208.115V209.807H112.348H146.481L145.893 206.062C144.632 198.003 139.376 190.532 132.592 187.153C128.454 185.094 128.087 185.05 113.544 184.87C102.639 184.736 97.8479 184.957 95.4412 185.707ZM59.0237 197.659C17.988 205.666 -16.6892 220.297 -48.4896 243.019C-52.2074 245.676 -55.2501 248.102 -55.2501 248.409C-55.2501 248.718 -54.3315 248.97 -53.2089 248.97C-52.0862 248.97 -48.7191 250.005 -45.727 251.272C-36.5903 255.139 -30.239 263.468 -28.0434 274.462L-27.1571 278.896L-7.98961 295.214L11.1779 311.531L59.26 294.66C85.7061 285.38 107.47 277.787 107.627 277.787C107.783 277.787 107.804 271.22 107.674 263.194L107.437 248.6L99.5865 248.213C93.0563 247.891 90.9488 247.46 87.0609 245.65C79.0085 241.903 72.5359 233.818 70.3071 224.724C68.9576 219.219 69.6537 202.951 71.4114 198.908L72.7766 195.768L70.4798 195.819C69.2167 195.847 64.0613 196.675 59.0237 197.659ZM152.999 198.82C154.795 203.027 155.528 219.154 154.176 224.672C152.87 229.999 149 236.745 145.034 240.606C143.284 242.309 139.456 244.714 136.504 245.964C131.889 247.917 130.198 248.231 124.291 248.231H117.433L117.669 263.091L117.905 277.951L165.01 294.49C190.918 303.587 212.512 311.032 212.996 311.034C213.479 311.036 222.356 303.806 232.721 294.967L251.565 278.896L252.643 273.513C253.997 266.743 257.98 259.922 263.105 255.596C267.358 252.006 273.968 248.97 277.53 248.97C278.735 248.97 279.72 248.718 279.72 248.409C279.72 247.77 268.861 239.907 260.716 234.648C244.234 224.008 218.575 212.186 198.054 205.78C186.487 202.168 164.051 196.989 156.113 196.097L151.622 195.593L152.999 198.82ZM-86.9414 255.31C-95.2023 257.522 -102.781 266.437 -103.849 275.199L-104.344 279.265H-70.1484H-35.9518L-36.5554 275.755C-38.0305 267.179 -43.7643 259.509 -51.213 256.152C-54.4301 254.701 -56.303 254.51 -68.771 254.355C-79.3261 254.224 -83.7548 254.457 -86.9414 255.31ZM279.715 254.832C270.046 257.324 262.779 265.437 260.947 275.784L260.331 279.265H294.571H328.81L328.247 275.21C326.961 265.931 319.644 257.462 311.046 255.299C306.138 254.064 283.975 253.734 279.715 254.832ZM63.1794 303.563L19.7929 318.797L50.0894 344.474C66.7524 358.597 80.6484 370.151 80.9686 370.151C81.2896 370.151 83.6309 368.991 86.172 367.574C90.7848 365 98.4193 362.529 104.602 361.607L107.874 361.12V325.039C107.874 305.194 107.58 288.816 107.219 288.643C106.859 288.47 87.0417 295.184 63.1794 303.563ZM117.469 324.646V361.18L122.485 362.041C128.46 363.068 133.808 364.962 139.564 368.091L143.791 370.389L174.279 344.564L204.766 318.739L163.953 304.424C141.505 296.55 121.864 289.659 120.304 289.11L117.469 288.112V324.646ZM-28.2082 292.819C-28.2082 298.512 -35.3604 309.524 -41.5215 313.318C-49.034 317.944 -49.6036 318.038 -70.0795 318.048C-87.9716 318.057 -89.0455 317.977 -93.4228 316.301C-96.3398 315.184 -99.7741 312.932 -102.846 310.121C-105.505 307.688 -107.808 305.819 -107.964 305.966C-108.732 306.696 -112.61 313.69 -116.35 321.088C-126.278 340.728 -133.463 365.254 -135.055 384.93C-135.334 388.384 -135.774 392.957 -136.032 395.09L-136.501 398.969H-86.0255H-35.5505L-15.6355 358.242L4.27956 317.513L-11.3009 304.301C-19.8706 297.034 -27.1797 291.088 -27.5452 291.088C-27.9099 291.088 -28.2082 291.867 -28.2082 292.819ZM235.872 304.215L220.392 317.343L240.274 357.971L260.155 398.6L310.469 398.79L360.781 398.981L360.349 393.987C358.129 368.38 354.073 351.244 345.482 331.169C342.157 323.4 333.717 307.024 332.51 306.002C332.302 305.825 330.129 307.536 327.681 309.804C324.996 312.293 321.263 314.748 318.268 315.993L313.305 318.058H294.55C276.369 318.058 275.661 318.002 271.433 316.234C262.565 312.526 254.296 302.853 253.018 294.691C252.707 292.709 252.206 291.088 251.903 291.088C251.599 291.088 244.386 296.995 235.872 304.215ZM11.6158 327.323C10.9345 328.73 6.63918 337.528 2.07172 346.876C-19.7842 391.6 -22.9743 398.184 -22.9743 398.562C-22.9743 398.786 -3.58789 398.969 20.106 398.969H63.1872L63.8031 395.488C64.6763 390.557 67.3839 384.797 70.9195 380.346L73.9568 376.522L43.4065 350.644L12.8553 324.766L11.6158 327.323ZM180.989 350.755L150.743 376.432L152.948 379.018C156.196 382.828 159.38 389.131 160.6 394.166L161.674 398.6L204.927 398.791L248.181 398.983L244.105 390.648C241.863 386.064 233.749 369.441 226.073 353.708C218.396 337.976 211.918 325.098 211.675 325.091C211.433 325.084 197.624 336.632 180.989 350.755ZM-117.185 407.346C-117.185 407.484 -115.611 408.997 -113.687 410.71C-106.441 417.162 -103.228 425.396 -103.228 437.512C-103.228 446.91 -104.272 451.691 -107.652 457.767C-109.991 461.972 -116.671 468.205 -121.132 470.345C-122.769 471.131 -122.734 471.354 -119.936 477.734C-109.975 500.459 -85.94 533.015 -69.2735 546.358L-66.5353 548.55L-31.1043 518.538L4.32753 488.525L-15.5945 447.811L-35.5165 407.097H-76.3506C-98.8093 407.097 -117.185 407.209 -117.185 407.346ZM-22.9743 407.46C-22.9743 408.098 12.1269 479.858 12.7131 480.418C13.0219 480.714 26.9284 469.387 43.615 455.248L73.9543 429.54L70.9177 425.719C67.3831 421.27 64.6763 415.508 63.8031 410.578L63.1872 407.097H20.106C-3.58789 407.097 -22.9743 407.26 -22.9743 407.46ZM161.667 407.59C161.347 407.86 161.077 408.941 161.067 409.991C161.038 413.009 157.32 421.156 153.914 425.667L150.797 429.794L181.204 455.543C197.928 469.705 211.756 481.141 211.933 480.956C212.467 480.397 246.772 409.934 247.226 408.463C247.632 407.148 246.044 407.097 204.948 407.097C181.463 407.097 161.986 407.319 161.667 407.59ZM260.115 407.806C259.831 408.195 250.772 426.56 239.985 448.617L220.372 488.719L255.689 518.635L291.005 548.55L293.748 546.358C299.204 541.996 311.571 528.659 319.559 518.523C328.062 507.734 339.451 489.039 344.406 477.734C347.204 471.354 347.24 471.131 345.602 470.345C341.265 468.264 334.704 462.151 332.22 457.877C328.553 451.565 327.744 448.013 327.719 438.102C327.687 425.38 330.507 417.947 338.149 410.607L341.803 407.097H301.218C276.259 407.097 260.433 407.37 260.115 407.806ZM-164.726 410.693C-168.545 412.166 -173.81 416.702 -176.153 420.538C-177.991 423.548 -179.967 429.674 -179.981 432.405L-179.992 434.437H-145.851H-111.711L-112.299 430.195C-113.455 421.868 -119.739 413.663 -127.216 410.72C-130.198 409.546 -132.925 409.346 -145.971 409.346C-158.881 409.346 -161.775 409.554 -164.726 410.693ZM351.687 410.72C344.209 413.663 337.925 421.868 336.769 430.195L336.181 434.437H370.434H404.687L404.098 430.68C403.192 424.892 400.404 419.42 396.397 415.564C390.5 409.89 388.231 409.346 370.441 409.346C357.395 409.346 354.668 409.546 351.687 410.72ZM48.1197 463.255C32.8096 476.228 20.5169 487.04 20.8021 487.282C21.5331 487.902 46.1735 496.554 46.4762 496.297C47.0929 495.775 76.4578 440.091 76.2214 439.892C76.0757 439.767 63.4297 450.281 48.1197 463.255ZM148.872 440.613C148.872 441.088 177.353 495.301 178.157 496.356C178.473 496.772 203.345 487.759 203.589 487.141C203.722 486.802 191.465 476.053 176.351 463.255C161.238 450.458 148.872 440.269 148.872 440.613ZM90.5841 474.523C81.915 490.881 74.7018 504.714 74.5553 505.263C74.3773 505.931 79.6392 508.16 90.4271 511.988C99.3029 515.136 106.859 517.577 107.219 517.41C108.148 516.981 108.039 444.782 107.109 444.782C106.69 444.782 99.2532 458.166 90.5841 474.523ZM117.469 481.169V517.852L129.9 513.52C147.205 507.489 150.617 506.218 150.617 505.803C150.617 505.063 119.01 445.863 118.255 445.188C117.788 444.771 117.469 459.379 117.469 481.169ZM-24.2017 524.516L-59.6754 554.571L-57.6812 556.124C-56.5839 556.978 -54.3123 557.919 -52.6331 558.216C-44.7247 559.616 -36.3051 565.409 -32.4756 572.086C-30.5643 575.418 -24.2121 579.359 -9.18466 586.538L-2.8089 589.583L-1.62169 587.194C-0.968323 585.881 9.01888 567.033 20.5719 545.31C32.1248 523.588 41.5773 505.631 41.5773 505.406C41.5773 505.181 38.9272 504.117 35.6891 503.04C32.4511 501.964 25.6322 499.593 20.5361 497.772L11.2721 494.46L-24.2017 524.516ZM197.286 500.161C189.61 502.915 183.423 505.538 183.539 505.99C183.904 507.414 226.641 587.731 227.391 588.402C228.265 589.183 237.727 584.926 247.539 579.337C253.093 576.173 255.39 574.331 257.306 571.506C262.064 564.489 268.438 560.041 275.951 558.496C278.264 558.021 281.054 556.943 282.151 556.101L284.146 554.571L249.007 524.8C229.681 508.425 213.278 495.056 212.556 495.09C211.834 495.125 204.963 497.407 197.286 500.161ZM46.799 556.823C34.5717 579.838 24.4537 598.914 24.3141 599.215C23.6956 600.551 49.4168 607.062 66.4384 609.879C76.0321 611.466 94.8585 613.254 101.98 613.254H107.874V570.835V528.417L101.549 526.197C98.0704 524.975 89.4641 521.952 82.4236 519.477C75.3831 517.003 69.4897 514.979 69.3266 514.979C69.1644 514.979 59.0263 533.809 46.799 556.823ZM136.224 521.553L117.905 528.027L117.68 570.641L117.455 613.254L122.914 613.254C131.027 613.252 150.519 611.193 162.29 609.095C176.795 606.509 198.245 601.115 200.204 599.559C200.37 599.428 191.089 581.59 179.582 559.921C155.797 515.133 155.703 514.961 155.035 515.029C154.764 515.056 146.299 517.992 136.224 521.553ZM-88.1321 564.832C-95.8827 567.687 -102.842 576.545 -103.853 584.841L-104.344 588.87H-70.2016C-40.9493 588.87 -36.0591 588.716 -36.0591 587.798C-36.0591 585.192 -38.191 578.609 -40.0447 575.491C-43.0394 570.453 -46.0358 567.781 -51.0804 565.652C-55.4097 563.824 -56.1957 563.748 -70.4686 563.776C-81.1824 563.796 -86.1249 564.092 -88.1321 564.832ZM275.551 565.652C270.506 567.781 267.51 570.453 264.515 575.491C262.661 578.609 260.529 585.192 260.529 587.798C260.529 588.716 265.419 588.87 294.672 588.87H328.814L328.323 584.841C327.625 579.115 323.84 572.457 319.24 568.865C313.161 564.119 311.383 563.747 294.749 563.747C280.714 563.747 279.862 563.831 275.551 565.652ZM-10.1416 664.055C-24.3351 690.776 -36.2109 713.22 -36.5327 713.931C-37.0884 715.159 -29.6519 715.224 112.142 715.224C200.038 715.224 261.402 714.951 261.402 714.559C261.402 713.682 209.962 616.763 209.069 615.958C208.691 615.617 202.941 616.834 196.291 618.665C182.048 622.585 169.229 625.29 157.159 626.924C142.976 628.844 144.064 628.262 147.506 632.082C152.78 637.936 154.34 642.632 154.781 653.985C155.011 659.94 154.774 665.622 154.198 667.894C151.915 676.911 144.589 685.559 136.332 688.98C131.815 690.853 131.356 690.891 112.703 690.917L93.6809 690.944L88.091 688.614C84.129 686.962 81.478 685.186 78.9867 682.516C71.9497 674.975 69.5176 668.289 69.5176 656.481C69.5176 645.546 72.1119 637.738 77.9285 631.166C80.4016 628.372 80.7156 628.531 70.3638 627.328C59.0141 626.009 42.4496 622.635 28.858 618.871C22.1019 617.001 16.3699 615.471 16.1204 615.471C15.87 615.471 4.05188 637.333 -10.1416 664.055ZM96.3127 628.152C92.0052 629.162 84.7396 634.765 82.2003 639.036C80.3466 642.155 78.2147 648.738 78.2147 651.345C78.2147 652.263 83.1049 652.417 112.356 652.417H146.499L146.007 648.899C144.828 640.466 139.811 633.359 132.452 629.694C128.487 627.72 127.969 627.659 113.98 627.524C106.063 627.448 98.1131 627.73 96.3127 628.152Z" fill="#ED1338"/>
<ellipse cx="107.968" cy="403.147" rx="37.1735" ry="31.1083" fill="#EFEFEF"/>
<path d="M140.577 220.316H77.3164C77.3164 226.684 82.012 240.182 100.794 243.238H119.055C127.533 241.419 143.707 234.288 140.577 220.316Z" fill="#EFEFEF"/>
<path d="M324.487 287.99H261.227C261.227 294.357 265.922 307.856 284.705 310.912H302.965C311.443 309.093 327.617 301.962 324.487 287.99Z" fill="#EFEFEF"/>
<path d="M397.53 439.715H334.27C334.27 446.082 338.965 459.581 357.748 462.637H376.008C384.486 460.818 400.66 453.686 397.53 439.715Z" fill="#EFEFEF"/>
<path d="M323.585 592.525H257.312C257.312 599.196 262.232 613.337 281.909 616.539H301.039C309.921 614.633 326.865 607.162 323.585 592.525Z" fill="#EFEFEF"/>
<path d="M140.98 653.65H74.707C74.707 660.321 79.6262 674.462 99.3031 677.664H118.433C127.315 675.758 144.259 668.287 140.98 653.65Z" fill="#EFEFEF"/>
<path d="M-42.6816 696.222H-57.0293L80.578 439.715L94.2735 443.535L-42.6816 696.222Z" fill="#EFEFEF"/>
<path d="M259.922 696.222H274.27L136.662 439.715L122.967 443.535L259.922 696.222Z" fill="#EFEFEF"/>
<path fill-rule="evenodd" clip-rule="evenodd" d="M-48.7563 569.049C-58.6497 571.815 -71.1766 579.585 -76.3318 586.151L-79.6907 590.428L-85.3882 584.065C-97.1216 570.957 -116.406 575.326 -122.229 592.41L-124.932 600.339L-131.214 595.837C-136.265 592.217 -140.061 591.335 -150.576 591.335C-161.688 591.335 -164.876 592.163 -171.774 596.836C-187.155 607.255 -196.304 626.397 -198.681 653.12L-199.848 666.254L-206.168 665.277C-211.266 664.491 -213.439 665.321 -217.417 669.57L-222.345 674.838L-229.049 668.718C-243.18 655.821 -262.679 649.858 -275.178 654.611C-283.506 657.778 -293.441 667.838 -296.456 676.155C-297.752 679.73 -298.813 686.3 -298.813 690.758C-298.813 698.211 -299.189 698.862 -303.497 698.862C-306.073 698.862 -309.922 700.749 -312.051 703.054C-315.174 706.435 -316.608 706.823 -319.461 705.064C-331.88 697.405 -352.711 709.572 -355.573 726.158C-356.484 731.44 -357.968 732.889 -365.659 736.002C-370.617 738.012 -375.46 740.295 -376.419 741.079C-377.378 741.861 -383.897 744.992 -390.906 748.035C-397.915 751.078 -403.408 753.695 -403.114 753.849C-402.819 754.006 -270.163 753.681 -108.32 753.128L185.938 752.123L166.818 743.079C156.304 738.104 147.687 732.881 147.672 731.47C147.619 726.962 132.722 711.528 125.928 708.943C119.489 706.495 102.487 706.964 96.8733 709.745C94.6253 710.859 93.8755 709.524 93.1239 703.064C91.7723 691.448 86.7131 680.928 79.1268 673.958C73.7031 668.975 70.5378 667.745 61.4378 667.076C55.3409 666.63 48.9231 667.187 47.1757 668.314C44.5685 669.994 43.4366 669.301 40.8834 664.463C39.0104 660.916 35.7579 658.1 32.7217 657.401C27.6973 656.243 27.6764 656.177 28.6094 644.333C30.5068 620.202 19.3315 592.525 2.1936 578.914C-12.855 566.961 -29.6599 563.707 -48.7563 569.049Z" fill="white"/>
<path d="M1718.49 325.068C1600.43 425.587 1563.35 451.138 1427.35 499.902C1392.59 512.366 1335.45 528.254 1335.45 528.254H2088.12C2015.67 511.787 1840.31 448.097 1718.49 325.068Z" fill="#ED1338"/>
<rect x="1316.67" y="586.875" width="33.8542" height="112.847" fill="#ED1338"/>
<rect x="1546.88" y="557.533" width="22.5694" height="121.875" fill="#ED1338"/>
<rect x="1868.09" y="558.324" width="22.8083" height="87.6318" fill="#ED1338"/>
<path d="M1316.67 595.267V531.691H2120.99V595.267C1984.72 563.09 1643.8 523.129 1316.67 595.267Z" fill="#ED1338"/>
<path fill-rule="evenodd" clip-rule="evenodd" d="M1709.98 325.116C1672.17 362.774 1620.41 401.672 1567.47 432.205C1498.75 471.836 1420.99 502.881 1332.31 526.085L1314.86 530.652H1717.26H2119.65L2094.68 519.283C1938.05 478.297 1813.06 411.72 1717.34 318.298C1713.5 314.547 1717.63 318.289 1717.34 318.298C1717.05 318.307 1713.74 321.375 1709.98 325.116ZM1705.97 342.25C1645.1 400.897 1571.35 449.218 1485.88 486.458C1465.7 495.255 1463.4 496.407 1472.41 493.235C1535.61 470.986 1587.63 445.524 1639.07 411.662C1656.82 399.978 1670.41 390.244 1684.22 379.322C1689.59 375.076 1693.98 372.002 1693.98 372.492C1693.98 374.093 1687.74 392.614 1683.61 403.289C1673.85 428.5 1662.14 452.129 1637.91 495.544C1635.63 499.619 1638.01 497.013 1648.54 483.898C1671.42 455.39 1685.36 434.453 1695.65 413.153C1699.53 405.137 1705.03 391.101 1706.14 386.394C1706.78 383.69 1706.85 383.64 1707.5 385.301C1708.13 386.909 1710.87 398.386 1718.47 431.141C1722 446.403 1721.51 447.696 1725.33 413.153C1726.81 399.75 1728.12 388.26 1728.24 387.622C1728.36 386.984 1730.36 390.162 1732.7 394.684C1744.39 417.32 1763.26 441.029 1791.58 468.647C1797.58 474.508 1802.89 479.564 1803.36 479.883C1803.83 480.202 1800.05 474.98 1794.95 468.278C1777.32 445.11 1764.24 424.061 1755.41 404.667C1750.91 394.782 1745.17 379.278 1743.62 372.826L1742.99 370.214L1749.07 375.147C1774.8 396.019 1808.84 417.241 1843.93 434.29C1859.65 441.931 1862.2 442.875 1854.22 438.103C1808.57 410.798 1765.57 377.916 1728.91 342.276L1717.48 331.164L1705.97 342.25ZM1314.41 564.31C1314.41 582.932 1314.74 594.484 1315.26 594.484C1315.73 594.484 1322.17 593.148 1329.58 591.517L1343.06 588.55V561.343V534.137H1328.73H1314.41V564.31ZM1348.43 560.775V587.414L1354.02 586.289C1499.51 557.015 1663.44 546.08 1826.47 554.771C1893.1 558.324 1961.58 565.664 2023.77 575.919C2042.34 578.98 2083.67 586.625 2085.4 587.316C2085.78 587.466 2086.08 575.562 2086.08 560.863V534.137H1717.26H1348.43V560.775ZM2091.45 561.343V588.55L2104.93 591.517C2112.34 593.148 2118.78 594.484 2119.25 594.484C2119.77 594.484 2120.1 582.932 2120.1 564.31V534.137H2105.78H2091.45V561.343ZM1552.09 561.8C1550.61 561.92 1548.5 562.146 1547.39 562.304L1545.37 562.592V604.359V676.023L1556.79 687.308L1558.8 676.023V603.768V561.409L1556.79 561.496C1555.68 561.544 1553.57 561.68 1552.09 561.8ZM1875.71 603.726V676.023H1879.29H1889.14V604.387C1889.14 565.13 1889.04 562.631 1887.57 562.366C1886.71 562.211 1883.69 561.914 1880.85 561.705L1875.71 561.325V603.726ZM1324.26 596.118L1314.86 598.255L1314.62 622.191L1315.26 707.62H1324.26H1335V620.015C1335 605.653 1334.7 593.921 1334.33 593.942C1333.96 593.963 1329.43 594.943 1324.26 596.118ZM2099.51 620.015V676.023H2110.25H2119.25L2119.89 622.191L2119.65 598.255L2110.25 596.118C2105.08 594.943 2100.55 593.963 2100.18 593.942C2099.81 593.921 2099.51 605.653 2099.51 620.015Z" fill="#EFEFEF"/>
<path fill-rule="evenodd" clip-rule="evenodd" d="M357.311 -139.088C331.679 -118.037 293.503 -90.1642 265.061 -71.736C214.558 -39.0127 163.568 -12.3093 110.091 9.42031C70.9536 25.3239 41.4832 35.1967 1.74438 45.7175C-43.8839 57.7975 -87.266 65.8616 -135.406 71.2122C-165.338 74.5387 -182.372 75.6009 -219.01 76.4252C-235.945 76.8061 -250.093 77.213 -250.449 77.3295C-250.805 77.446 -256.473 77.4817 -263.044 77.4088C-269.616 77.336 -275.078 77.4396 -275.183 77.639C-275.516 78.2696 -274.072 78.357 -261.996 78.437C-255.506 78.4804 -250.154 78.5197 -250.104 78.525C-250.054 78.5302 -239.89 98.6286 -227.516 123.188C-215.142 147.747 -204.931 167.885 -204.826 167.938C-204.72 167.992 -194.512 147.185 -182.14 121.7L-159.646 75.3651L-161.235 75.2357C-162.109 75.1643 -162.709 75.058 -162.57 74.9988C-162.43 74.9395 -157.216 74.4176 -150.984 73.8383C-144.752 73.2594 -138.145 72.5851 -136.303 72.3398C-134.461 72.0952 -133.018 72.017 -133.097 72.1674C-133.176 72.3172 -135.539 72.7755 -138.348 73.1856C-141.157 73.5963 -143.538 74.0884 -143.638 74.2793C-143.739 74.4701 -137.418 83.7807 -129.591 94.9689C-91.6967 149.136 -86.2168 156.929 -85.9208 157.073C-85.5263 157.266 -87.8774 164.405 -69.8577 108.306L-54.3073 59.8961L-51.6857 59.3441C-37.0232 56.2556 -33.7099 55.6609 -34.1662 56.199C-34.5786 56.6854 -34.5385 56.7656 -33.9716 56.5864C-33.5787 56.4621 -33.3527 56.5423 -33.47 56.764C-33.5866 56.986 -33.2324 57.3864 -32.683 57.654C-32.1331 57.9214 -31.7044 58.4802 -31.7296 58.8949C-31.7548 59.3096 -31.5435 59.573 -31.2594 59.48C-30.9749 59.3868 -30.8108 59.5757 -30.8941 59.8994C-30.9774 60.2232 -30.8133 60.412 -30.5287 60.3189C-30.2447 60.2259 -30.0352 60.5212 -30.0627 60.9749C-30.0906 61.4288 -29.8494 61.7137 -29.5272 61.6082C-29.205 61.5027 -29.0092 61.6812 -29.0925 62.0049C-29.1758 62.3287 -29.0117 62.5175 -28.7272 62.4244C-28.4431 62.3314 -28.2336 62.6266 -28.2611 63.0803C-28.289 63.5342 -28.0478 63.8191 -27.7256 63.7136C-27.4034 63.6081 -27.2076 63.7866 -27.2909 64.1104C-27.3742 64.4341 -27.1895 64.6162 -26.8803 64.515C-26.5711 64.4138 -26.3817 64.5777 -26.4591 64.879C-26.5369 65.1804 -26.3209 65.4903 -25.9795 65.5677C-25.6381 65.6452 -25.4221 65.955 -25.4999 66.2565C-25.5772 66.5578 -25.3632 66.7136 -25.0244 66.6027C-24.6856 66.4918 -24.5039 66.5827 -24.6212 66.8044C-24.7378 67.0264 -24.3837 67.4268 -23.8343 67.6944C-23.2844 67.9618 -22.8556 68.5206 -22.8808 68.9353C-22.906 69.35 -22.6947 69.6134 -22.4107 69.5204C-22.1261 69.4273 -21.962 69.6161 -22.0453 69.9398C-22.1286 70.2636 -21.9328 70.4421 -21.6106 70.3366C-21.2884 70.2311 -21.0472 70.516 -21.0751 70.9699C-21.1026 71.4236 -20.8931 71.7188 -20.6091 71.6259C-20.3245 71.5327 -20.1604 71.7215 -20.2437 72.0453C-20.327 72.3691 -20.1629 72.5579 -19.8784 72.4647C-19.5943 72.3718 -19.3848 72.667 -19.4123 73.1207C-19.4403 73.5746 -19.1991 73.8595 -18.8768 73.754C-18.5546 73.6485 -18.3588 73.827 -18.4421 74.1508C-18.5254 74.4745 -18.3407 74.6566 -18.0315 74.5554C-17.7224 74.4542 -17.533 74.6181 -17.6103 74.9194C-17.6881 75.2208 -17.4721 75.5307 -17.1307 75.6081C-16.7893 75.6856 -16.5733 75.9954 -16.6511 76.2969C-16.7284 76.5982 -16.5391 76.7621 -16.2299 76.6609C-15.9208 76.5597 -15.7314 76.7235 -15.8087 77.0248C-15.8865 77.3263 -15.6705 77.6362 -15.3291 77.7136C-14.9877 77.791 -14.7717 78.1009 -14.8495 78.4024C-14.9268 78.7037 -14.7375 78.8675 -14.4283 78.7663C-14.1192 78.6651 -13.9344 78.8472 -14.0177 79.171C-14.1011 79.4947 -13.9163 79.6768 -13.6071 79.5756C-13.298 79.4744 -13.1132 79.6565 -13.1965 79.9802C-13.2799 80.304 -13.084 80.4825 -12.7618 80.377C-12.4396 80.2715 -12.1984 80.5564 -12.2264 81.0103C-12.2538 81.464 -12.0443 81.7592 -11.7603 81.6663C-11.4758 81.5731 -11.3116 81.762 -11.3949 82.0857C-11.4783 82.4095 -11.2935 82.5915 -10.9843 82.4903C-10.6752 82.3891 -10.4909 82.573 -10.575 82.8997C-10.6587 83.2257 -10.2744 83.7133 -9.72033 83.9832C-9.16695 84.2526 -8.7358 84.8376 -8.76282 85.2825C-8.79033 85.7276 -8.54867 86.0054 -8.22645 85.8999C-7.90421 85.7944 -7.70839 85.9729 -7.79172 86.2966C-7.87505 86.6204 -7.6903 86.8025 -7.38114 86.7013C-7.07198 86.6001 -6.8826 86.7639 -6.95992 87.0652C-7.03775 87.3667 -6.82175 87.6766 -6.48032 87.754C-6.13891 87.8314 -5.92293 88.1413 -6.00075 88.4428C-6.07807 88.7441 -5.88869 88.9079 -5.57954 88.8067C-5.27038 88.7055 -5.08559 88.8876 -5.16894 89.2114C-5.25227 89.5351 -5.05644 89.7136 -4.73421 89.6081C-4.41199 89.5026 -4.1708 89.7875 -4.19878 90.2414C-4.22625 90.6951 -4.01672 90.9904 -3.73269 90.8974C-3.44816 90.8042 -3.28401 90.9931 -3.36734 91.3168C-3.45067 91.6406 -3.26592 91.8227 -2.95674 91.7215C-2.64759 91.6203 -2.46281 91.8023 -2.54615 92.1261C-2.62948 92.4499 -2.46534 92.6387 -2.18081 92.5455C-1.89678 92.4526 -1.68725 92.7478 -1.71472 93.2015C-1.7427 93.6554 -1.5015 93.9403 -1.17927 93.8348C-0.857048 93.7293 -0.661214 93.9078 -0.744546 94.2316C-0.827876 94.5553 -0.663728 94.7442 -0.379193 94.651C-0.0951664 94.558 0.114355 94.8533 0.0868807 95.307C0.0588816 95.7609 0.300104 96.0458 0.622328 95.9403C0.944552 95.8348 1.14037 96.0133 1.05704 96.337C0.973709 96.6608 1.13789 96.8496 1.42241 96.7565C1.70643 96.6635 1.91596 96.9588 1.88848 97.4125C1.86048 97.8663 2.10171 98.1512 2.42393 98.0458C2.74615 97.9403 2.94197 98.1187 2.85864 98.4425C2.77531 98.7663 2.96008 98.9483 3.26925 98.8471C3.57843 98.7459 3.7678 98.9098 3.69046 99.2111C3.61265 99.5126 3.82861 99.8224 4.17004 99.8999C4.51147 99.9773 4.72746 100.287 4.64965 100.589C4.57231 100.89 4.76168 101.054 5.07085 100.953C5.38003 100.851 5.56477 101.033 5.48144 101.357C5.3981 101.681 5.59393 101.859 5.91615 101.754C6.23939 101.648 6.47894 101.945 6.44985 102.416C6.41578 102.974 6.56048 103.083 6.86598 102.73C7.17897 102.37 7.31608 102.495 7.27835 103.106C7.2476 103.61 7.45484 103.945 7.73886 103.853C8.02341 103.759 8.18756 103.948 8.10423 104.272C8.0209 104.596 8.18505 104.785 8.46957 104.691C8.7536 104.598 8.96315 104.894 8.93567 105.347C8.90767 105.801 9.14886 106.086 9.47109 105.981C9.79334 105.875 9.98917 106.054 9.90583 106.377C9.8225 106.701 9.98665 106.89 10.2712 106.797C10.5552 106.704 10.7647 106.999 10.7373 107.453C10.7093 107.907 10.9505 108.192 11.2727 108.086C11.5949 107.981 11.7908 108.159 11.7074 108.483C11.6241 108.807 11.7883 108.995 12.0728 108.902C12.3568 108.809 12.5663 109.105 12.5389 109.558C12.5109 110.012 12.7521 110.297 13.0743 110.192C13.3965 110.086 13.5924 110.265 13.509 110.588C13.4257 110.912 13.6105 111.094 13.9196 110.993C14.2288 110.892 14.4136 111.074 14.3302 111.398C14.2469 111.721 14.4427 111.9 14.7649 111.794C15.0872 111.689 15.3284 111.974 15.3004 112.428C15.2729 112.881 15.4825 113.177 15.7665 113.084C16.051 112.99 16.2152 113.179 16.1318 113.503C16.0485 113.827 16.2333 114.009 16.5424 113.908C16.8516 113.807 17.0363 113.989 16.953 114.312C16.8697 114.636 17.0655 114.815 17.3877 114.709C17.71 114.604 17.9512 114.889 17.9232 115.342C17.8957 115.796 18.1052 116.091 18.3893 115.998C18.6738 115.905 18.838 116.094 18.7546 116.418C18.6713 116.742 18.856 116.924 19.1652 116.822C19.4743 116.721 19.6586 116.905 19.5745 117.232C19.4908 117.558 19.8752 118.045 20.4292 118.315C20.9826 118.585 21.4137 119.17 21.3867 119.615C21.3592 120.06 21.6009 120.338 21.9231 120.232C22.2453 120.127 22.4412 120.305 22.3578 120.629C22.2745 120.952 22.4592 121.135 22.7684 121.033C23.0775 120.932 23.267 121.096 23.1896 121.397C23.1118 121.699 23.3278 122.009 23.6692 122.086C24.0106 122.164 24.2266 122.473 24.1488 122.775C24.0715 123.076 24.2609 123.24 24.57 123.139C24.8792 123.038 25.064 123.22 24.9806 123.544C24.8973 123.867 25.0614 124.056 25.3459 123.963C25.63 123.87 25.8372 124.206 25.8065 124.709C25.7654 125.378 25.8962 125.457 26.292 125.001C26.6878 124.545 26.8186 124.624 26.7775 125.293C26.7468 125.796 26.954 126.132 27.238 126.039C27.5226 125.946 27.6867 126.134 27.6034 126.458C27.5201 126.782 27.6842 126.971 27.9687 126.878C28.2527 126.785 28.4623 127.08 28.4348 127.534C28.4068 127.988 28.648 128.272 28.9703 128.167C29.2925 128.061 29.4883 128.24 29.405 128.564C29.3217 128.887 29.4858 129.076 29.7703 128.983C30.0543 128.89 30.2639 129.185 30.2364 129.639C30.2085 130.093 30.4496 130.378 30.7719 130.272C31.0951 130.167 31.288 130.406 31.2022 130.805C31.1167 131.204 31.4065 130.819 31.847 129.951C32.2875 129.082 32.5917 128.036 32.5229 127.627C32.4547 127.218 32.6365 126.603 32.9277 126.26C33.2186 125.917 33.2799 125.691 33.0638 125.757C32.4888 125.933 33.1878 122.474 33.7659 122.285C34.0354 122.196 34.1479 121.977 34.0165 121.798C33.6272 121.267 34.0709 117.872 34.5505 117.715C34.7938 117.636 34.8849 117.242 34.7535 116.84C34.6221 116.439 34.7544 116.032 35.047 115.936C35.3396 115.84 35.3679 115.588 35.1094 115.376C34.8509 115.164 34.8924 114.908 35.2016 114.807C35.5107 114.706 35.5598 114.456 35.311 114.252C35.0619 114.048 35.1599 113.308 35.5288 112.608C35.8976 111.909 36.026 111.251 35.8135 111.148C35.601 111.044 35.7046 110.869 36.0434 110.758C36.3822 110.647 36.4483 110.383 36.1898 110.171C35.9313 109.959 35.9973 109.695 36.3362 109.584C36.675 109.473 36.7653 109.292 36.5374 109.18C35.9756 108.907 36.5682 105.735 37.2207 105.521C37.5062 105.428 37.5286 105.178 37.2701 104.966C37.0116 104.754 37.053 104.498 37.3622 104.397C37.6713 104.296 37.7128 104.04 37.4543 103.828C37.1958 103.616 37.2372 103.36 37.5464 103.258C37.8555 103.157 37.9289 102.927 37.7098 102.747C37.4903 102.568 37.5957 101.832 37.9428 101.112C38.2905 100.391 38.3946 99.7142 38.1735 99.6065C37.9531 99.4992 38.0363 99.3248 38.3585 99.2193C38.6813 99.1136 38.8468 98.8778 38.7262 98.6946C38.27 98.0025 38.5869 95.997 39.2334 95.4824C39.604 95.1881 39.6945 94.772 39.4338 94.5587C39.1737 94.3452 39.2137 94.0879 39.5228 93.9867C39.832 93.8855 39.8734 93.6294 39.6149 93.4175C39.3564 93.2057 39.3979 92.9495 39.707 92.8483C40.0162 92.7471 40.0744 92.5049 39.8371 92.3103C39.5992 92.1154 39.6383 91.5135 39.9234 90.9727C40.2085 90.432 40.3649 89.755 40.271 89.4677C40.1772 89.1809 40.3266 88.8721 40.6031 88.7816C40.8796 88.6911 41.0253 88.4612 40.9271 88.2713C40.4889 87.425 40.5326 86.6604 41.0796 85.6237C41.4031 85.01 41.6098 84.1613 41.5389 83.737C41.4674 83.3125 41.6474 82.6854 41.9386 82.3421C42.2295 81.9995 42.2908 81.7735 42.0747 81.8394C41.4455 82.0324 42.2274 78.547 42.8603 78.3399C43.176 78.2365 43.2471 78.0612 43.0193 77.9498C42.4751 77.6848 43.0524 74.3586 43.7813 73.5583C44.0932 73.2152 44.1499 72.7725 43.9073 72.5737C43.6646 72.3745 43.7191 72.1292 44.0282 72.028C44.3374 71.9268 44.3788 71.6706 44.1204 71.4588C43.8619 71.2469 43.9033 70.9908 44.2125 70.8896C44.5216 70.7884 44.5706 70.5384 44.3219 70.3341C44.0728 70.1305 44.1708 69.3906 44.5397 68.691C44.9085 67.9913 45.0368 67.3337 44.8244 67.2302C44.6119 67.1267 44.7154 66.9516 45.0542 66.8407C45.3931 66.7297 45.4591 66.4656 45.2006 66.2537C44.9421 66.0418 45.0082 65.7776 45.347 65.6667C45.6858 65.5558 45.7762 65.3742 45.5483 65.2628C44.9865 64.9896 45.5791 61.8174 46.2316 61.6038C46.5171 61.5103 46.5394 61.2605 46.2809 61.0486C46.0225 60.8368 46.0639 60.5806 46.3731 60.4794C46.6822 60.3782 46.7237 60.1221 46.4652 59.9102C46.2067 59.6984 46.2481 59.4422 46.5573 59.341C46.8664 59.2398 46.9398 59.0099 46.7207 58.8299C46.5012 58.6505 46.6065 57.9142 46.9537 57.1941C47.3014 56.4739 47.4055 55.7967 47.1844 55.689C46.964 55.5817 47.0472 55.4073 47.3694 55.3018C47.6921 55.1962 47.8577 54.9603 47.7371 54.7772C47.2809 54.085 47.5978 52.0795 48.2443 51.565C48.6149 51.2706 48.7054 50.8545 48.4447 50.6412C48.1846 50.4277 48.2245 50.1704 48.5337 50.0692C48.8428 49.968 48.8843 49.7119 48.6258 49.5C48.3673 49.2882 48.4087 49.032 48.7179 48.9308C49.027 48.8296 49.0685 48.5735 48.81 48.3616C48.5515 48.1498 48.5929 47.8936 48.9021 47.7924C49.2112 47.6912 49.2847 47.4613 49.0655 47.2813C48.846 47.1019 48.9631 46.3402 49.3254 45.5898C49.6881 44.8388 49.9425 44.1125 49.8914 43.975C49.5378 43.0283 49.5667 42.6997 50.0905 41.7062C50.414 41.0925 50.6206 40.2438 50.5498 39.8196C50.4783 39.395 50.6583 38.7679 50.9495 38.4246C51.2404 38.082 51.3017 37.856 51.0856 37.9219C50.4913 38.1041 51.2196 34.6357 51.8173 34.44C52.1029 34.3465 52.1433 34.1112 51.9069 33.9174C51.6704 33.7237 51.7251 33.3614 52.028 33.1118C52.3311 32.8627 48.746 33.8941 44.0621 35.4042C39.3781 36.9144 35.6139 38.0394 35.6974 37.9048C35.7808 37.7702 44.9806 34.5235 56.1405 30.6901L76.4316 23.7198L114.607 57.3168C135.603 75.7949 152.886 90.6871 153.015 90.4111C153.177 90.0599 159.761 2.40025 160.573 -10.2352C160.611 -10.8222 159.799 -10.6449 156.484 -9.34132C154.209 -8.44633 152.992 -8.04191 153.779 -8.44248C156.172 -9.65957 178.721 -20.5792 179.096 -20.7024C179.288 -20.7653 198.257 -8.23653 221.248 7.14018C244.239 22.5167 263.561 35.3647 264.186 35.6923C265.264 36.2574 265.311 36.1186 265.1 32.9675C264.627 25.8932 260.47 -42.817 259.875 -53.4025C259.529 -59.5467 259.174 -64.7967 259.085 -65.0689C258.989 -65.3639 256.892 -64.3882 253.893 -62.6517C245.117 -57.5707 245.246 -57.8929 254.277 -63.6048C259.096 -66.6524 265.612 -70.848 268.758 -72.9279L274.478 -76.7096L279.18 -74.2433C301.426 -62.5737 365.577 -29.5382 365.666 -29.7063C365.76 -29.8843 352.999 -102.999 349.231 -123.873L348.077 -130.27L356.388 -136.996C360.96 -140.695 364.646 -143.887 364.581 -144.087C364.366 -144.743 363.317 -144.021 357.311 -139.088ZM-131.345 72.1287C-130.937 72.1508 -130.509 71.9912 -130.395 71.775C-130.281 71.5587 -130.615 71.5408 -131.138 71.7352C-131.716 71.9503 -131.797 72.1047 -131.345 72.1287ZM-31.3335 55.5778C-30.537 55.4405 -29.2923 55.033 -28.5687 54.6727C-27.8451 54.3124 -28.4967 54.4249 -30.0174 54.9227C-31.538 55.4205 -32.1301 55.7151 -31.3335 55.5778ZM-25.8976 54.3319C-25.2373 54.2441 -24.2199 53.911 -23.6354 53.5914C-23.0512 53.2713 -23.5914 53.3431 -24.8356 53.7504C-26.0798 54.1577 -26.558 54.4193 -25.8976 54.3319ZM-20.7199 53.1846C-19.7924 53.0001 -18.2084 52.4832 -17.1997 52.0366C-16.1917 51.5896 -16.9502 51.7409 -18.8864 52.3721C-20.8225 53.0037 -21.6479 53.3693 -20.7199 53.1846ZM-13.7641 51.4434C-12.9676 51.3061 -11.7229 50.8986 -10.9993 50.5383C-10.2757 50.178 -10.9273 50.2905 -12.4479 50.7883C-13.9686 51.2861 -14.5607 51.5807 -13.7641 51.4434ZM-7.06788 49.7968C-5.99642 49.5625 -4.29983 49.0071 -3.29766 48.5626C-2.29483 48.1184 -3.17159 48.31 -5.24522 48.9889C-7.31882 49.6677 -8.13869 50.0315 -7.06788 49.7968ZM0.631809 47.8153C1.70327 47.581 3.39989 47.0256 4.40203 46.5811C5.40486 46.1369 4.52813 46.3285 2.4545 47.0073C0.380866 47.6861 -0.438998 48.0499 0.631809 47.8153ZM9.84135 45.3454C11.4629 44.9213 14.0639 44.0699 15.6224 43.4529C17.1809 42.836 15.8539 43.1825 12.6744 44.2234C9.49482 45.2643 8.21979 45.7695 9.84135 45.3454ZM22.5462 41.7264C24.4311 41.2124 27.5984 40.1766 29.5843 39.4235C31.5708 38.6708 30.0287 39.091 26.1578 40.3576C22.2867 41.6238 20.6617 42.2399 22.5462 41.7264Z" fill="#ED1338"/>
<path fill-rule="evenodd" clip-rule="evenodd" d="M2199.03 146.539C2165.95 144.062 2119.09 137.855 2085.79 131.541C2026.67 120.329 1971.35 104.427 1917.67 83.2113C1878.38 67.6843 1850.25 54.472 1814.24 34.6368C1772.9 11.862 1735.96 -12.2661 1697.44 -41.6421C1673.5 -59.9083 1660.45 -70.9037 1633.38 -95.6102C1620.87 -107.03 1610.36 -116.506 1610.02 -116.668C1609.68 -116.83 1605.56 -120.718 1600.85 -125.309C1596.15 -129.9 1592.13 -133.598 1591.92 -133.526C1591.24 -133.3 1592.22 -132.239 1600.9 -123.842C1605.57 -119.328 1609.41 -115.604 1609.44 -115.566C1609.47 -115.527 1602.95 -93.9717 1594.93 -67.6643C1586.92 -41.3569 1580.4 -19.7412 1580.44 -19.6298C1580.48 -19.5178 1602.23 -27.5158 1628.78 -37.403L1677.05 -55.3794L1675.99 -56.5703C1675.4 -57.2253 1675.04 -57.717 1675.18 -57.6633C1675.33 -57.6096 1679.46 -54.3865 1684.36 -50.5015C1689.27 -46.616 1694.52 -42.5414 1696.02 -41.4463C1697.52 -40.3509 1698.62 -39.4112 1698.45 -39.357C1698.29 -39.3031 1696.27 -40.6038 1693.95 -42.247C1691.64 -43.8899 1689.58 -45.1782 1689.37 -45.1097C1689.17 -45.0411 1687.31 -33.942 1685.24 -20.4448C1675.24 44.9001 1673.82 54.3207 1673.94 54.6297C1674.09 55.0411 1667.46 58.5806 1719.23 30.4534L1763.91 6.18119L1766.19 7.59242C1778.93 15.4849 1781.73 17.343 1781.03 17.417C1780.4 17.484 1780.37 17.5696 1780.91 17.8316C1781.28 18.013 1781.38 18.2271 1781.15 18.3064C1780.91 18.3865 1780.89 18.9207 1781.1 19.4936C1781.31 20.0668 1781.24 20.767 1780.93 21.0495C1780.63 21.332 1780.6 21.6685 1780.87 21.7974C1781.14 21.9265 1781.13 22.1764 1780.84 22.353C1780.56 22.5296 1780.55 22.7796 1780.82 22.9087C1781.09 23.0376 1781.03 23.3959 1780.7 23.705C1780.37 24.014 1780.35 24.3866 1780.65 24.5328C1780.96 24.6791 1780.98 24.9434 1780.69 25.12C1780.41 25.2966 1780.4 25.5465 1780.67 25.6756C1780.94 25.8045 1780.88 26.1628 1780.55 26.472C1780.22 26.7809 1780.19 27.1535 1780.5 27.2997C1780.81 27.446 1780.82 27.7103 1780.54 27.8869C1780.26 28.0635 1780.26 28.3228 1780.56 28.4631C1780.85 28.6034 1780.88 28.8527 1780.61 29.0172C1780.35 29.1815 1780.29 29.5548 1780.48 29.8466C1780.68 30.1384 1780.62 30.5116 1780.35 30.6759C1780.09 30.8404 1780.14 31.1009 1780.46 31.2547C1780.78 31.4085 1780.85 31.5997 1780.61 31.679C1780.37 31.759 1780.35 32.2932 1780.57 32.8661C1780.78 33.4393 1780.7 34.1395 1780.4 34.422C1780.09 34.7045 1780.06 35.041 1780.33 35.1699C1780.6 35.299 1780.59 35.549 1780.31 35.7256C1780.02 35.9022 1780.04 36.1665 1780.35 36.3127C1780.65 36.459 1780.63 36.8316 1780.3 37.1405C1779.97 37.4497 1779.91 37.8079 1780.18 37.9368C1780.45 38.066 1780.44 38.3159 1780.16 38.4925C1779.87 38.6691 1779.86 38.919 1780.13 39.0482C1780.4 39.1771 1780.35 39.5353 1780.02 39.8445C1779.68 40.1534 1779.66 40.526 1779.97 40.6723C1780.27 40.8185 1780.29 41.0828 1780.01 41.2594C1779.72 41.436 1779.73 41.6953 1780.02 41.8357C1780.32 41.976 1780.34 42.2253 1780.08 42.3898C1779.81 42.5541 1779.75 42.9273 1779.95 43.2191C1780.14 43.5109 1780.08 43.8842 1779.82 44.0485C1779.56 44.213 1779.58 44.4623 1779.87 44.6026C1780.17 44.7429 1780.19 44.9922 1779.93 45.1567C1779.66 45.321 1779.6 45.6943 1779.8 45.9861C1779.99 46.2778 1779.93 46.6511 1779.67 46.8154C1779.4 46.9799 1779.43 47.2292 1779.72 47.3695C1780.02 47.5098 1780.02 47.7691 1779.74 47.9457C1779.46 48.1223 1779.46 48.3816 1779.76 48.5219C1780.05 48.6622 1780.06 48.9215 1779.77 49.0981C1779.49 49.2747 1779.51 49.539 1779.81 49.6853C1780.12 49.8315 1780.1 50.2042 1779.76 50.5131C1779.43 50.8222 1779.38 51.1805 1779.65 51.3094C1779.92 51.4385 1779.91 51.6885 1779.62 51.8651C1779.34 52.0417 1779.35 52.3009 1779.64 52.4413C1779.93 52.5816 1779.94 52.8418 1779.65 53.02C1779.37 53.198 1779.31 53.8161 1779.52 54.3938C1779.74 54.9709 1779.65 55.6917 1779.32 55.9949C1778.99 56.2978 1778.97 56.6655 1779.28 56.8118C1779.59 56.958 1779.6 57.2223 1779.32 57.3989C1779.04 57.5755 1779.04 57.8348 1779.34 57.9751C1779.63 58.1154 1779.66 58.3647 1779.39 58.5292C1779.13 58.6935 1779.07 59.0668 1779.26 59.3586C1779.46 59.6504 1779.4 60.0236 1779.13 60.1879C1778.87 60.3524 1778.89 60.6018 1779.19 60.7421C1779.48 60.8824 1779.49 61.1417 1779.2 61.3183C1778.92 61.4949 1778.94 61.7592 1779.25 61.9054C1779.55 62.0517 1779.53 62.4243 1779.2 62.7332C1778.86 63.0424 1778.81 63.4006 1779.08 63.5295C1779.35 63.6587 1779.34 63.9086 1779.05 64.0852C1778.77 64.2618 1778.78 64.5211 1779.07 64.6614C1779.36 64.8017 1779.37 65.061 1779.09 65.2376C1778.8 65.4142 1778.79 65.6641 1779.06 65.7933C1779.33 65.9222 1779.28 66.2804 1778.95 66.5896C1778.61 66.8985 1778.59 67.2711 1778.9 67.4174C1779.2 67.5636 1779.22 67.8279 1778.94 68.0045C1778.65 68.1811 1778.64 68.4311 1778.91 68.5602C1779.18 68.6891 1779.13 69.0474 1778.8 69.3565C1778.46 69.6654 1778.44 70.0381 1778.75 70.1843C1779.05 70.3306 1779.07 70.5949 1778.79 70.7715C1778.5 70.9481 1778.49 71.198 1778.76 71.3271C1779.03 71.456 1778.98 71.8143 1778.65 72.1235C1778.31 72.4324 1778.29 72.805 1778.6 72.9513C1778.9 73.0975 1778.92 73.3618 1778.64 73.5384C1778.35 73.715 1778.36 73.9743 1778.65 74.1146C1778.95 74.2549 1778.97 74.5042 1778.71 74.6687C1778.44 74.833 1778.38 75.2063 1778.58 75.4981C1778.77 75.7899 1778.71 76.1631 1778.45 76.3274C1778.18 76.4919 1778.21 76.7412 1778.5 76.8815C1778.8 77.0219 1778.8 77.2811 1778.52 77.4577C1778.24 77.6343 1778.25 77.8986 1778.56 78.0449C1778.87 78.1916 1778.84 78.5717 1778.49 78.8922C1778.08 79.272 1778.11 79.4507 1778.57 79.4069C1779.05 79.3626 1779.06 79.5477 1778.61 79.9637C1778.24 80.3064 1778.16 80.6925 1778.43 80.8214C1778.7 80.9505 1778.69 81.2005 1778.4 81.3771C1778.12 81.5537 1778.11 81.8036 1778.38 81.9328C1778.65 82.0617 1778.6 82.4199 1778.26 82.7291C1777.93 83.038 1777.91 83.4106 1778.21 83.5568C1778.52 83.7031 1778.54 83.9674 1778.25 84.144C1777.97 84.3206 1777.96 84.5706 1778.23 84.6997C1778.5 84.8286 1778.44 85.1868 1778.11 85.496C1777.78 85.8049 1777.75 86.1776 1778.06 86.3238C1778.37 86.47 1778.39 86.7344 1778.1 86.911C1777.82 87.0876 1777.81 87.3375 1778.08 87.4666C1778.35 87.5955 1778.29 87.9538 1777.96 88.2629C1777.63 88.5719 1777.6 88.9445 1777.91 89.0907C1778.22 89.237 1778.23 89.5013 1777.95 89.6779C1777.67 89.8545 1777.67 90.1138 1777.97 90.2541C1778.26 90.3944 1778.27 90.6537 1777.99 90.8303C1777.7 91.0069 1777.72 91.2712 1778.03 91.4174C1778.33 91.5637 1778.31 91.9363 1777.98 92.2452C1777.64 92.5544 1777.59 92.9127 1777.86 93.0416C1778.13 93.1707 1778.12 93.4206 1777.83 93.5972C1777.55 93.7738 1777.56 94.0331 1777.85 94.1734C1778.15 94.3137 1778.15 94.573 1777.87 94.7496C1777.59 94.9262 1777.6 95.1905 1777.91 95.3368C1778.22 95.483 1778.19 95.8556 1777.86 96.1646C1777.53 96.4737 1777.47 96.832 1777.74 96.9609C1778.01 97.09 1778 97.34 1777.72 97.5166C1777.43 97.6932 1777.44 97.9524 1777.74 98.0928C1778.03 98.2331 1778.04 98.4933 1777.75 98.6715C1777.46 98.8495 1777.4 99.4676 1777.62 100.045C1777.83 100.622 1777.74 101.343 1777.41 101.646C1777.09 101.949 1777.07 102.317 1777.38 102.463C1777.68 102.61 1777.7 102.874 1777.42 103.05C1777.13 103.227 1777.14 103.486 1777.43 103.627C1777.73 103.767 1777.75 104.016 1777.49 104.181C1777.22 104.345 1777.16 104.718 1777.36 105.01C1777.55 105.302 1777.49 105.675 1777.23 105.839C1776.96 106.004 1776.99 106.253 1777.28 106.394C1777.58 106.534 1777.58 106.793 1777.3 106.97C1777.02 107.146 1777 107.396 1777.27 107.525C1777.54 107.654 1777.46 108.04 1777.09 108.383C1776.6 108.839 1776.64 108.986 1777.24 108.929C1777.84 108.873 1777.88 109.02 1777.39 109.476C1777.02 109.818 1776.94 110.205 1777.21 110.333C1777.48 110.463 1777.47 110.713 1777.18 110.889C1776.9 111.066 1776.89 111.316 1777.16 111.445C1777.43 111.574 1777.38 111.932 1777.04 112.241C1776.71 112.55 1776.69 112.923 1776.99 113.069C1777.3 113.215 1777.32 113.479 1777.03 113.656C1776.75 113.833 1776.74 114.083 1777.01 114.212C1777.28 114.341 1777.22 114.699 1776.89 115.008C1776.56 115.317 1776.54 115.69 1776.84 115.836C1777.15 115.983 1777.12 116.289 1776.78 116.518C1776.45 116.748 1776.92 116.67 1777.84 116.346C1778.76 116.022 1779.7 115.475 1779.93 115.132C1780.17 114.789 1780.72 114.47 1781.17 114.423C1781.62 114.376 1781.82 114.254 1781.62 114.153C1781.08 113.883 1783.97 111.864 1784.52 112.127C1784.78 112.249 1785.01 112.168 1785.04 111.948C1785.13 111.294 1787.79 109.146 1788.25 109.364C1788.48 109.474 1788.81 109.252 1789 108.871C1789.18 108.49 1789.56 108.287 1789.83 108.42C1790.11 108.552 1790.31 108.39 1790.27 108.058C1790.22 107.726 1790.43 107.57 1790.73 107.71C1791.02 107.85 1791.23 107.703 1791.19 107.384C1791.15 107.065 1791.73 106.597 1792.48 106.346C1793.23 106.095 1793.78 105.708 1793.69 105.486C1793.61 105.265 1793.81 105.209 1794.13 105.363C1794.45 105.517 1794.68 105.371 1794.64 105.04C1794.6 104.708 1794.83 104.563 1795.15 104.716C1795.47 104.87 1795.67 104.801 1795.58 104.563C1795.36 103.978 1797.98 102.093 1798.6 102.389C1798.87 102.518 1799.06 102.353 1799.02 102.021C1798.98 101.69 1799.18 101.533 1799.48 101.673C1799.77 101.814 1799.98 101.657 1799.94 101.325C1799.9 100.993 1800.1 100.837 1800.4 100.977C1800.69 101.118 1800.9 101.002 1800.87 100.72C1800.83 100.439 1801.42 99.9793 1802.17 99.6983C1802.91 99.4175 1803.46 98.9996 1803.37 98.7691C1803.29 98.5392 1803.47 98.4706 1803.77 98.6168C1804.08 98.7633 1804.36 98.707 1804.4 98.4913C1804.55 97.6757 1806.16 96.4441 1806.99 96.5184C1807.46 96.5615 1807.81 96.323 1807.77 95.9887C1807.73 95.6547 1807.94 95.4962 1808.23 95.6365C1808.52 95.7769 1808.73 95.6202 1808.69 95.2885C1808.65 94.9567 1808.86 94.8001 1809.15 94.9404C1809.44 95.0807 1809.65 94.9458 1809.61 94.6412C1809.58 94.336 1810.02 93.9276 1810.6 93.7334C1811.18 93.5392 1811.76 93.1576 1811.89 92.885C1812.02 92.6128 1812.34 92.4927 1812.61 92.6182C1812.87 92.7436 1813.13 92.678 1813.19 92.4728C1813.46 91.5582 1814.02 91.0353 1815.13 90.6633C1815.79 90.4429 1816.52 89.9718 1816.77 89.6161C1817.01 89.2596 1817.57 88.9304 1818.02 88.8833C1818.47 88.8363 1818.67 88.7152 1818.46 88.6137C1817.88 88.3188 1820.85 86.338 1821.45 86.6252C1821.75 86.7685 1821.92 86.6909 1821.83 86.4529C1821.62 85.8855 1824.34 83.8786 1825.42 83.8031C1825.88 83.7704 1826.23 83.4893 1826.19 83.1781C1826.15 82.8664 1826.36 82.7266 1826.65 82.8669C1826.95 83.0072 1827.15 82.8506 1827.11 82.5189C1827.07 82.1871 1827.28 82.0305 1827.57 82.1708C1827.87 82.3111 1828.07 82.1642 1828.03 81.8447C1828 81.5254 1828.58 81.058 1829.33 80.8067C1830.08 80.5554 1830.62 80.1684 1830.54 79.9469C1830.46 79.7253 1830.66 79.6701 1830.98 79.8239C1831.3 79.9777 1831.53 79.8322 1831.49 79.5005C1831.45 79.1687 1831.68 79.0233 1832 79.1771C1832.32 79.3308 1832.51 79.2619 1832.42 79.024C1832.21 78.4384 1834.83 76.5534 1835.45 76.8495C1835.72 76.9791 1835.9 76.8138 1835.86 76.4821C1835.82 76.1504 1836.03 75.9938 1836.32 76.1341C1836.62 76.2744 1836.82 76.1177 1836.78 75.786C1836.74 75.4543 1836.95 75.2976 1837.24 75.4379C1837.54 75.5783 1837.75 75.4626 1837.71 75.1811C1837.68 74.8998 1838.26 74.4401 1839.01 74.159C1839.76 73.8782 1840.3 73.4604 1840.22 73.2298C1840.13 73 1840.31 72.9313 1840.62 73.0776C1840.93 73.224 1841.21 73.1678 1841.25 72.9521C1841.4 72.1364 1843.01 70.9049 1843.83 70.9792C1844.31 71.0223 1844.66 70.7838 1844.62 70.4495C1844.58 70.1154 1844.78 69.957 1845.08 70.0973C1845.37 70.2376 1845.58 70.081 1845.54 69.7492C1845.5 69.4175 1845.7 69.2609 1846 69.4012C1846.29 69.5415 1846.5 69.3849 1846.46 69.0531C1846.41 68.7214 1846.62 68.5648 1846.91 68.7051C1847.21 68.8454 1847.42 68.7298 1847.39 68.4483C1847.35 68.167 1847.96 67.6969 1848.74 67.4045C1849.52 67.1117 1850.21 66.7621 1850.27 66.6274C1850.66 65.6986 1850.91 65.4809 1851.98 65.1241C1852.64 64.9037 1853.37 64.4325 1853.61 64.0768C1853.85 63.7204 1854.42 63.3912 1854.87 63.344C1855.31 63.2971 1855.51 63.176 1855.31 63.0744C1854.76 62.7957 1857.68 60.7903 1858.24 61.0615C1858.52 61.1911 1858.71 61.0489 1858.67 60.7455C1858.63 60.4421 1858.92 60.2177 1859.31 60.2465C1859.71 60.2756 1856.4 58.5456 1851.97 56.403C1847.54 54.2604 1844.04 52.4744 1844.19 52.4347C1844.35 52.395 1853.24 56.4004 1863.96 61.3352L1888.75 71.3271L1887.86 120.97C1890.28 148.834 1892.5 171.54 1892.78 171.429C1893.14 171.287 1958.44 112.436 1967.75 103.859C1968.19 103.461 1967.48 103.028 1964.18 101.682C1961.91 100.758 1960.76 100.21 1961.6 100.464C1964.17 101.236 1988.02 108.911 1988.38 109.081C1988.56 109.168 1993.63 131.329 1999.63 158.328C2005.64 185.327 2010.74 207.963 2010.97 208.631C2011.36 209.785 2011.49 209.717 2013.51 207.292C2018.06 201.849 2062.5 149.285 2069.38 141.218C2073.38 136.536 2076.74 132.494 2076.87 132.236C2077 131.956 2074.81 131.214 2071.44 130.398C2061.59 128.012 2061.9 127.868 2072.38 129.974C2077.97 131.098 2085.58 132.564 2089.29 133.232L2096.04 134.447L2097.74 139.478C2105.77 163.281 2129.35 231.477 2129.53 231.417C2129.72 231.353 2170.98 169.661 2182.67 151.963L2186.26 146.54L2196.91 147.415C2202.77 147.896 2207.65 148.134 2207.74 147.944C2208.03 147.322 2206.78 147.119 2199.03 146.539ZM1699.75 -38.1753C1700.03 -37.8772 1700.45 -37.697 1700.68 -37.7747C1700.91 -37.8523 1700.68 -38.096 1700.17 -38.3166C1699.6 -38.5602 1699.44 -38.5048 1699.75 -38.1753ZM1783.51 18.924C1784.18 19.3748 1785.36 19.9397 1786.13 20.1789C1786.91 20.418 1786.36 20.0494 1784.91 19.3592C1783.47 18.6691 1782.84 18.4733 1783.51 18.924ZM1788.3 21.7771C1788.84 22.1696 1789.81 22.6313 1790.45 22.8038C1791.09 22.9758 1790.65 22.6546 1789.47 22.0899C1788.29 21.5252 1787.76 21.3842 1788.3 21.7771ZM1792.84 24.5231C1793.64 25.0302 1795.14 25.7503 1796.18 26.1239C1797.21 26.4968 1796.56 26.0824 1794.73 25.2017C1792.89 24.3214 1792.04 24.0158 1792.84 24.5231ZM1799.07 28.0676C1799.74 28.5184 1800.92 29.0833 1801.7 29.3224C1802.47 29.5615 1801.92 29.1929 1800.48 28.5027C1799.03 27.8126 1798.4 27.6168 1799.07 28.0676ZM1805.05 31.5012C1805.99 32.0717 1807.6 32.8417 1808.63 33.2123C1809.66 33.5837 1808.9 33.1167 1806.93 32.1756C1804.96 31.2345 1804.12 30.9314 1805.05 31.5012ZM1811.99 35.3856C1812.93 35.9561 1814.54 36.7261 1815.57 37.0967C1816.6 37.4681 1815.83 37.0011 1813.86 36.06C1811.9 35.1189 1811.05 34.8158 1811.99 35.3856ZM1820.36 39.9595C1821.82 40.7727 1824.29 41.9531 1825.84 42.5833C1827.4 43.2134 1826.2 42.5476 1823.18 41.1046C1820.16 39.6615 1818.89 39.1464 1820.36 39.9595ZM1832.04 46.1163C1833.76 47.0462 1836.77 48.4845 1838.72 49.3114C1840.68 50.1389 1839.27 49.3778 1835.6 47.6205C1831.93 45.8629 1830.33 45.1862 1832.04 46.1163Z" fill="#ED1338"/>
<path fill-rule="evenodd" clip-rule="evenodd" d="M1914.02 589.776C1885.54 594.915 1853.41 607.428 1838.93 619.018L1826.83 628.696L1803.38 621.84C1722.01 598.054 1634.87 613.928 1584.83 661.661C1577.73 668.424 1569.02 672.795 1560.45 673.893C1552.19 674.946 1547.11 677.404 1547.11 680.349C1547.11 685.43 1545 685.253 1513.11 677.506C1487.3 671.235 1440.33 671.739 1405.22 678.664C1342.08 691.116 1304.7 716.918 1304.7 748.053C1304.7 758.272 1307.44 767.152 1311.92 771.457C1318.69 777.974 1318.56 778.576 1309.67 781.408C1304.46 783.067 1298 787.236 1295.32 790.672C1291.8 795.18 1288.61 796.185 1283.89 794.28C1262.04 785.449 1225.22 800.36 1225.21 818.04C1225.2 827.713 1223.23 815.221 1176.87 825.861L1106.77 830.624H1791.21C2187.1 830.688 2464.99 827.455 2460.89 825.921C2447.88 821.051 2365.51 822.401 2335.98 817.467L2306.51 812.542L2302.9 794.083C2297.94 768.739 2281.7 746.912 2263.27 740.823C2248.7 736.014 2220.1 735.954 2203.37 740.699C2197.84 742.268 2195.44 741.674 2195.44 738.745C2195.44 733.247 2180.91 724.958 2171.28 724.958C2165.03 724.958 2163.7 721.88 2163.7 707.442C2163.7 697.451 2160.75 686.281 2156.82 681.435C2148.03 670.578 2125.71 663.076 2108.67 665.253C2098.89 666.501 2095.69 665.812 2095.69 662.46C2095.69 653.624 2072.68 627.22 2054.87 615.616C2018.36 591.832 1960.97 581.302 1914.02 589.776Z" fill="#D5D5D5"/>
<path fill-rule="evenodd" clip-rule="evenodd" d="M1077.07 584.119C1092.76 587.144 1115.13 601.609 1123.3 608.791L1128.63 613.469L1137.67 606.509C1156.28 592.172 1186.87 596.951 1196.11 615.636L1200.39 624.309L1210.36 619.385C1218.37 615.425 1224.39 614.46 1241.07 614.46C1258.7 614.46 1263.75 615.366 1274.69 620.477C1299.09 631.873 1313.6 652.81 1317.37 682.039L1319.22 696.405L1329.25 695.336C1337.34 694.477 1340.78 695.385 1347.09 700.032L1354.91 705.794L1365.54 699.1C1387.96 684.993 1418.89 678.471 1438.71 683.67C1451.92 687.135 1467.68 698.137 1472.47 707.234C1474.52 711.145 1476.2 718.331 1476.2 723.207C1476.2 731.358 1476.8 732.07 1483.63 732.07C1487.72 732.07 1493.82 734.135 1497.2 736.656C1502.16 740.354 1504.43 740.778 1508.96 738.854C1528.65 730.477 1561.7 743.785 1566.24 761.926C1567.68 767.703 1570.04 769.288 1582.23 772.693C1590.1 774.891 1597.78 777.389 1599.3 778.246C1600.82 779.101 1611.16 782.526 1622.28 785.854C1633.4 789.183 1642.11 792.045 1641.65 792.214C1641.18 792.386 1430.76 792.029 1174.04 791.425L707.289 790.326L737.616 780.433C754.294 774.992 767.962 769.279 767.987 767.736C768.07 762.805 791.699 745.924 802.477 743.097C812.69 740.42 839.659 740.932 848.563 743.974C852.129 745.192 853.318 743.732 854.511 736.667C856.655 723.961 864.68 712.455 876.713 704.831C885.316 699.381 890.337 698.036 904.771 697.304C914.442 696.816 924.622 697.425 927.394 698.658C931.53 700.496 933.325 699.737 937.375 694.446C940.346 690.566 945.505 687.486 950.321 686.721C958.291 685.455 958.324 685.382 956.844 672.428C953.834 646.035 971.561 615.762 998.745 600.875C1022.62 587.801 1046.78 578.276 1077.07 584.119Z" fill="white"/>
<path fill-rule="evenodd" clip-rule="evenodd" d="M373.295 593.311C390.394 596.716 409.69 605.006 418.385 612.685L425.649 619.097L439.729 614.555C488.589 598.795 540.913 609.312 570.965 640.938C575.223 645.419 580.455 648.315 585.603 649.042C590.563 649.74 593.612 651.369 593.612 653.32C593.612 656.686 594.881 656.569 614.03 651.436C629.525 647.281 657.732 647.615 678.811 652.203C716.725 660.453 739.168 677.548 739.168 698.177C739.168 704.948 737.524 710.831 734.837 713.683C730.767 718.001 730.848 718.4 736.187 720.276C739.315 721.375 743.192 724.137 744.803 726.414C746.916 729.401 748.83 730.067 751.663 728.804C764.785 722.954 786.896 732.833 786.902 744.547C786.904 750.956 786.972 750.988 814.806 758.038L842.707 765.102L441.16 765.172C203.442 765.214 41.3127 764.54 43.7764 763.524C51.5895 760.297 102.19 747.436 119.923 744.167L137.619 740.904L139.785 728.674C142.764 711.882 152.515 697.421 163.584 693.387C172.331 690.201 189.507 690.161 199.552 693.304C202.873 694.344 204.316 693.951 204.316 692.01C204.316 688.367 213.036 682.875 218.823 682.875C222.572 682.875 223.372 680.836 223.372 671.27C223.372 664.65 225.145 657.25 227.502 654.039C232.781 646.846 246.186 641.876 256.416 643.318C262.286 644.145 264.208 643.688 264.208 641.467C264.208 635.613 278.026 618.119 288.72 610.431C310.646 594.673 345.102 587.696 373.295 593.311Z" fill="#BCBCBC"/>
<path fill-rule="evenodd" clip-rule="evenodd" d="M772.716 544.234C771.482 544.439 767.282 548.94 765.332 552.148C759.284 562.097 755.662 577.055 754.975 594.91C754.378 610.439 757.917 624.844 766.497 641.815C767.658 644.112 769.365 647.564 770.29 649.486C771.215 651.407 771.992 653.013 772.018 653.055C772.043 653.096 773.048 653.23 774.252 653.352L776.44 653.575L776.001 652.211C774.074 646.234 772.3 631.756 771.548 615.875C771.079 605.969 771.344 581.339 772.013 572.614C772.91 560.911 774.491 550.639 776.114 545.965C776.458 544.973 776.74 544.124 776.74 544.079C776.74 543.956 773.68 544.073 772.716 544.234ZM777.238 544.911C775.591 548.414 773.686 560.172 772.802 572.282C770.802 599.71 772.327 635.639 776.152 651.153L776.807 653.812H779.315H781.824L782.466 651.566C784.299 645.155 785.581 635.856 786.677 621.033C787.332 612.169 787.423 586.403 786.831 577.44C785.762 561.239 783.955 549.032 782.019 544.911C781.617 544.056 781.46 543.996 779.628 543.996C777.797 543.996 777.639 544.056 777.238 544.911ZM782.517 544.079C782.517 544.124 782.798 544.973 783.143 545.965C787.597 558.795 789.401 597.626 786.907 627.023C786.092 636.63 784.473 647.026 783.12 651.328C782.787 652.388 782.571 653.317 782.639 653.392C782.708 653.467 783.69 653.405 784.823 653.254L786.882 652.98L791.708 643.662C799.788 628.062 802.112 622.239 803.326 614.544C804.233 608.801 804.567 599.987 804.163 592.493C803.032 571.552 797.896 555.209 789.839 546.912C787.731 544.741 787.242 544.398 785.992 544.211C784.57 543.997 782.516 543.919 782.517 544.079ZM767.131 545.292C760.243 547.146 752.145 556.202 747.095 567.698C742.892 577.268 741.018 586.963 741.032 599.07C741.041 607.195 741.652 612.605 742.891 615.543C745.058 620.682 749.771 632.101 767.741 675.743L772.18 686.526V692.154C772.18 695.549 772.311 698.048 772.509 698.454C773.131 699.726 774.593 700.068 779.421 700.068C784.126 700.068 785.663 699.762 786.171 698.724C786.334 698.389 786.468 695.508 786.468 692.322V686.529L791.142 675.245C793.713 669.039 798.443 657.597 801.655 649.818C813.186 621.89 814.126 619.662 815.631 616.707C817.747 612.55 818.226 609.219 818.213 598.737C818.203 590.496 817.714 585.989 816.114 579.376C812.919 566.172 805.891 554.318 797.609 548.159C795.512 546.6 794.527 546.109 792.201 545.46C790.636 545.024 789.178 544.666 788.959 544.664C788.741 544.662 789.356 545.466 790.327 546.451C797.014 553.227 802.086 566.996 804.256 584.262C804.924 589.582 805.191 603.027 804.736 608.417C803.65 621.272 801.941 625.841 789.697 648.629C788.426 650.995 787.419 652.96 787.459 652.996C787.5 653.032 788.982 652.828 790.754 652.545L793.975 652.028L795.517 649.01C796.365 647.35 799.361 642.621 802.176 638.5C804.99 634.38 807.966 629.926 808.789 628.602C810.386 626.033 810.906 625.642 809.934 627.74C809.607 628.444 804.208 641.449 797.936 656.64C791.664 671.832 786.287 684.823 785.988 685.509C785.441 686.763 784.34 687.261 784.34 686.254C784.34 685.978 785.584 681.298 787.104 675.855C789.058 668.858 790.075 665.715 790.575 665.126C791.107 664.501 791.583 662.891 792.493 658.637C793.16 655.526 793.669 652.939 793.626 652.889C793.583 652.839 792.195 653.02 790.54 653.291C782.624 654.588 777.022 654.589 768.725 653.295C766.908 653.011 765.364 652.842 765.294 652.92C765.223 652.997 765.992 655.887 767.003 659.343C769.495 667.867 774.356 685.077 774.542 686.037C774.671 686.698 774.586 686.798 773.983 686.702C773.401 686.611 772.99 685.902 771.701 682.763C766.348 669.725 749.447 628.885 748.444 626.559C747.781 625.023 747.29 623.71 747.352 623.641C747.415 623.572 747.809 624.08 748.227 624.77C748.645 625.46 750.742 628.496 752.885 631.516C759.932 641.441 763.129 646.711 764.415 650.518L764.932 652.049L768.176 652.546C769.96 652.819 771.446 653.024 771.478 653.003C771.51 652.982 770.228 650.496 768.63 647.481C759.842 630.899 755.853 619.088 754.528 605.726C754.078 601.195 754.335 589.666 755.007 584.262C757.137 567.105 762.25 553.22 768.929 546.451C770.951 544.401 770.8 544.304 767.131 545.292ZM758.78 548.273C743.795 555.674 734.471 570.95 734.377 588.255C734.356 592.148 734.467 593.236 735.209 596.408C736.142 600.398 737.992 605.781 739.954 610.218C741.161 612.947 741.199 612.994 741.03 611.549C739.769 600.721 740.021 591.42 741.823 582.278C744.551 568.439 751.34 555.917 759.99 548.769C761.395 547.608 762.421 546.664 762.27 546.671C762.119 546.679 760.549 547.4 758.78 548.273ZM797.58 547.264C797.738 547.414 798.777 548.312 799.887 549.26C804.781 553.437 809.874 560.663 812.941 567.781C815.763 574.328 817.914 582.791 818.672 590.322C819.114 594.719 819.062 604.297 818.572 608.554C818.351 610.476 818.199 612.089 818.235 612.138C818.271 612.188 819.212 609.896 820.326 607.045C823.962 597.742 825.096 591.822 824.504 585.217C823.266 571.376 817.194 560.051 806.892 552.364C803.809 550.064 796.042 545.81 797.58 547.264ZM770.169 667.205C775.199 685.343 775.634 686.757 776.183 686.757C776.489 686.757 776.74 686.615 776.74 686.442C776.74 686.115 772.465 666.319 772.38 666.254C772.354 666.234 771.757 666.121 771.054 666.003L769.776 665.789L770.169 667.205ZM773.396 666.571C773.396 666.817 774.354 671.397 775.524 676.75C776.695 682.102 777.652 686.551 777.652 686.636C777.652 686.721 778.439 686.745 779.4 686.69L781.148 686.59L783.344 676.607C784.552 671.116 785.544 666.512 785.548 666.374C785.553 666.237 782.82 666.125 779.476 666.125C774.593 666.125 773.396 666.212 773.396 666.571ZM786.194 667.372C785.259 671.296 782.212 685.71 782.212 686.211C782.212 686.596 782.398 686.766 782.739 686.694C783.143 686.609 783.876 684.395 785.913 677.103C787.369 671.889 788.64 667.285 788.737 666.873C788.897 666.19 788.806 666.125 787.702 666.125C786.559 666.125 786.475 666.194 786.194 667.372Z" fill="#EFEFEF"/>
<path d="M791.35 654.469C783.096 656.903 776.342 656.498 767.713 654.469C767.838 656.768 768.538 662.016 770.339 664.613C774.967 664.883 785.197 665.181 789.099 664.207C789.85 663.801 791.35 661.285 791.35 654.469Z" fill="#F63859"/>
<path d="M749.463 568.116C751.591 562.364 758.217 550.07 767.701 546.914C764.357 550.694 757.396 560.227 756.302 568.116H749.463Z" fill="#F63859"/>
<path d="M774.867 546.428H772.587C769.548 549.057 763.012 557.078 761.188 568.123H770.307C771.219 562.042 773.408 549.189 774.867 546.428Z" fill="#F63859"/>
<path d="M781.706 546.428H778.059C776.995 550.044 774.867 559.445 774.867 568.123H785.354C785.05 563.357 783.895 552.345 781.706 546.428Z" fill="#F63859"/>
<path d="M788.089 546.428H784.442C785.506 547.743 787.816 553.922 788.545 568.123H799.488C798.12 563.357 793.926 552.345 788.089 546.428Z" fill="#F63859"/>
<path d="M792.193 546.428H790.825C792.649 547.907 797.573 554.317 802.68 568.123H811.799C809.063 562.864 801.312 551.161 792.193 546.428Z" fill="#F63859"/>
<path d="M819.094 568.123H814.078C812.711 564.343 807.878 555.106 799.488 548.4C805.112 551.523 816.905 559.839 819.094 568.123Z" fill="#F63859"/>
<path d="M740.215 568.123C743.103 563.521 751.249 553.134 760.733 548.4C757.997 550.266 751.066 556.822 745.23 568.123H740.215Z" fill="#F63859"/>
<rect x="-0.25" y="528.75" width="1920" height="283.125" fill="url(#paint0_linear_1_916)"/>
</g>
<defs>
<linearGradient id="paint0_linear_1_916" x1="959.75" y1="528.75" x2="959.75" y2="811.875" gradientUnits="userSpaceOnUse">
<stop offset="0.254808" stop-color="#3B3939" stop-opacity="0"/>
<stop offset="0.552885"/>
</linearGradient>
<clipPath id="clip0_1_916">
<rect width="1920" height="686.25" fill="white"/>
</clipPath>
</defs>
</svg>
