<svg width="134" height="13" viewBox="0 0 134 13" fill="none" xmlns="http://www.w3.org/2000/svg">
<path d="M0.571724 2.3389C0.571724 2.17119 0.606028 2.05303 0.674635 1.98443C0.743241 1.91582 0.861398 1.88152 1.0291 1.88152H2.37837C2.54608 1.88152 2.66423 1.91582 2.73284 1.98443C2.80145 2.05303 2.83575 2.17119 2.83575 2.3389V9.54262C2.83575 9.71033 2.80145 9.82848 2.73284 9.89709C2.66423 9.9657 2.54608 10 2.37837 10H1.0291C0.861398 10 0.743241 9.9657 0.674635 9.89709C0.606028 9.82848 0.571724 9.71033 0.571724 9.54262V2.3389ZM11.7412 1.88152C11.9166 1.88152 12.0385 1.91963 12.1072 1.99586C12.1834 2.06447 12.2215 2.18644 12.2215 2.36176V9.51975C12.2215 9.69508 12.1834 9.82086 12.1072 9.89709C12.0385 9.9657 11.9166 10 11.7412 10H10.4492C10.2357 10 10.0794 9.92377 9.98034 9.77131L8.21943 7.06134C7.98312 6.68781 7.79635 6.34097 7.65914 6.0208C7.52955 5.70063 7.3809 5.26231 7.21319 4.70583H7.12172C7.22844 5.17846 7.30086 5.51387 7.33897 5.71207C7.37709 5.91027 7.41139 6.18469 7.44188 6.53535C7.48 6.87839 7.49906 7.25191 7.49906 7.65593V9.51975C7.49906 9.69508 7.46094 9.82086 7.38471 9.89709C7.3161 9.9657 7.19033 10 7.00737 10H5.85249C5.66954 10 5.53995 9.9657 5.46372 9.89709C5.39511 9.82086 5.36081 9.69508 5.36081 9.51975V2.36176C5.36081 2.18644 5.39511 2.06447 5.46372 1.99586C5.53995 1.91963 5.66954 1.88152 5.85249 1.88152H7.20176C7.42283 1.88152 7.58291 1.95775 7.68201 2.11021L9.55726 5.03743C9.67923 5.22039 9.78595 5.40334 9.87743 5.58629C9.9689 5.76924 10.0375 5.9217 10.0832 6.04367C10.1366 6.16564 10.2052 6.33715 10.2891 6.55822C10.3729 6.77929 10.4492 6.96986 10.5178 7.12994H10.6092C10.411 6.48199 10.2738 5.97506 10.1976 5.60916C10.129 5.24325 10.0947 4.78588 10.0947 4.23702V2.36176C10.0947 2.18644 10.129 2.06447 10.1976 1.99586C10.2662 1.91963 10.392 1.88152 10.5749 1.88152H11.7412ZM20.022 1.88152C20.205 1.88152 20.3308 1.91963 20.3994 1.99586C20.4756 2.06447 20.5137 2.18644 20.5137 2.36176V3.39087C20.5137 3.57382 20.4756 3.70341 20.3994 3.77964C20.3308 3.84825 20.205 3.88255 20.022 3.88255H17.0033V5.20895H19.416C19.599 5.20895 19.7248 5.24707 19.7934 5.3233C19.8696 5.3919 19.9077 5.51387 19.9077 5.6892V6.7183C19.9077 6.90125 19.8696 7.03085 19.7934 7.10708C19.7248 7.17568 19.599 7.20999 19.416 7.20999H17.0033V9.51975C17.0033 9.69508 16.969 9.82086 16.9004 9.89709C16.8318 9.9657 16.706 10 16.5231 10H15.231C15.048 10 14.9185 9.9657 14.8422 9.89709C14.7736 9.82086 14.7393 9.69508 14.7393 9.51975V2.36176C14.7393 2.18644 14.7736 2.06447 14.8422 1.99586C14.9185 1.91963 15.048 1.88152 15.231 1.88152H20.022ZM22.6885 2.3389C22.6885 2.17119 22.7228 2.05303 22.7914 1.98443C22.86 1.91582 22.9782 1.88152 23.1459 1.88152H24.4952C24.6629 1.88152 24.781 1.91582 24.8496 1.98443C24.9182 2.05303 24.9525 2.17119 24.9525 2.3389V9.54262C24.9525 9.71033 24.9182 9.82848 24.8496 9.89709C24.781 9.9657 24.6629 10 24.4952 10H23.1459C22.9782 10 22.86 9.9657 22.7914 9.89709C22.7228 9.82848 22.6885 9.71033 22.6885 9.54262V2.3389ZM33.858 1.88152C34.0334 1.88152 34.1553 1.91963 34.2239 1.99586C34.3002 2.06447 34.3383 2.18644 34.3383 2.36176V9.51975C34.3383 9.69508 34.3002 9.82086 34.2239 9.89709C34.1553 9.9657 34.0334 10 33.858 10H32.5659C32.3525 10 32.1962 9.92377 32.0971 9.77131L30.3362 7.06134C30.0999 6.68781 29.9131 6.34097 29.7759 6.0208C29.6463 5.70063 29.4977 5.26231 29.33 4.70583H29.2385C29.3452 5.17846 29.4177 5.51387 29.4558 5.71207C29.4939 5.91027 29.5282 6.18469 29.5587 6.53535C29.5968 6.87839 29.6158 7.25191 29.6158 7.65593V9.51975C29.6158 9.69508 29.5777 9.82086 29.5015 9.89709C29.4329 9.9657 29.3071 10 29.1242 10H27.9693C27.7863 10 27.6567 9.9657 27.5805 9.89709C27.5119 9.82086 27.4776 9.69508 27.4776 9.51975V2.36176C27.4776 2.18644 27.5119 2.06447 27.5805 1.99586C27.6567 1.91963 27.7863 1.88152 27.9693 1.88152H29.3186C29.5396 1.88152 29.6997 1.95775 29.7988 2.11021L31.6741 5.03743C31.796 5.22039 31.9027 5.40334 31.9942 5.58629C32.0857 5.76924 32.1543 5.9217 32.2 6.04367C32.2534 6.16564 32.322 6.33715 32.4059 6.55822C32.4897 6.77929 32.5659 6.96986 32.6346 7.12994H32.726C32.5278 6.48199 32.3906 5.97506 32.3144 5.60916C32.2458 5.24325 32.2115 4.78588 32.2115 4.23702V2.36176C32.2115 2.18644 32.2458 2.06447 32.3144 1.99586C32.383 1.91963 32.5088 1.88152 32.6917 1.88152H33.858ZM36.8561 2.3389C36.8561 2.17119 36.8904 2.05303 36.959 1.98443C37.0276 1.91582 37.1458 1.88152 37.3135 1.88152H38.6628C38.8305 1.88152 38.9486 1.91582 39.0172 1.98443C39.0858 2.05303 39.1201 2.17119 39.1201 2.3389V9.54262C39.1201 9.71033 39.0858 9.82848 39.0172 9.89709C38.9486 9.9657 38.8305 10 38.6628 10H37.3135C37.1458 10 37.0276 9.9657 36.959 9.89709C36.8904 9.82848 36.8561 9.71033 36.8561 9.54262V2.3389ZM47.351 1.88152C47.534 1.88152 47.6597 1.91963 47.7283 1.99586C47.8046 2.06447 47.8427 2.18644 47.8427 2.36176V3.39087C47.8427 3.57382 47.8046 3.70341 47.7283 3.77964C47.6597 3.84825 47.534 3.88255 47.351 3.88255H45.6587V9.51975C45.6587 9.69508 45.6206 9.82086 45.5444 9.89709C45.4757 9.9657 45.35 10 45.167 10H43.8749C43.692 10 43.5662 9.9657 43.4976 9.89709C43.429 9.82086 43.3947 9.69508 43.3947 9.51975V3.88255H41.6909C41.508 3.88255 41.3822 3.84825 41.3136 3.77964C41.245 3.70341 41.2107 3.57382 41.2107 3.39087V2.36176C41.2107 2.18644 41.245 2.06447 41.3136 1.99586C41.3822 1.91963 41.508 1.88152 41.6909 1.88152H47.351ZM55.1898 1.88152C55.3727 1.88152 55.4985 1.91963 55.5671 1.99586C55.6434 2.06447 55.6815 2.18644 55.6815 2.36176V3.39087C55.6815 3.57382 55.6434 3.70341 55.5671 3.77964C55.4985 3.84825 55.3727 3.88255 55.1898 3.88255H52.1711V4.90022H54.5838C54.7667 4.90022 54.8925 4.93834 54.9611 5.01456C55.0373 5.08317 55.0754 5.20514 55.0754 5.38047V6.40957C55.0754 6.59252 55.0373 6.72211 54.9611 6.79834C54.8925 6.86695 54.7667 6.90125 54.5838 6.90125H52.1711V7.99897H55.2927C55.468 7.99897 55.59 8.03327 55.6586 8.10188C55.7348 8.17048 55.7729 8.29626 55.7729 8.47921V9.51975C55.7729 9.69508 55.7348 9.82086 55.6586 9.89709C55.59 9.9657 55.468 10 55.2927 10H50.3987C50.2158 10 50.0862 9.9657 50.01 9.89709C49.9414 9.82086 49.9071 9.69508 49.9071 9.51975V2.36176C49.9071 2.18644 49.9414 2.06447 50.01 1.99586C50.0862 1.91963 50.2158 1.88152 50.3987 1.88152H55.1898ZM68.3985 9.53119C68.5128 9.84373 68.4023 10 68.0669 10H66.832C66.5423 10 66.3365 9.9657 66.2145 9.89709C66.1002 9.82848 66.0201 9.7027 65.9744 9.51975L65.7114 8.69647H63.2415L62.9785 9.51975C62.9176 9.7027 62.8299 9.82848 62.7155 9.89709C62.6088 9.9657 62.4183 10 62.1438 10H60.9432C60.623 10 60.5201 9.84373 60.6345 9.53119L63.2644 2.28172C63.3178 2.12164 63.3864 2.01492 63.4702 1.96156C63.5541 1.9082 63.6837 1.88152 63.859 1.88152H65.1625C65.3302 1.88152 65.456 1.9082 65.5399 1.96156C65.6313 2.01492 65.7038 2.11402 65.7571 2.25885L68.3985 9.53119ZM64.7738 5.56342C64.7051 5.33473 64.648 5.08698 64.6022 4.82018C64.5641 4.55337 64.5413 4.34374 64.5336 4.19128L64.5222 3.96259H64.4079C64.4155 4.51145 64.3431 5.04125 64.1906 5.55199L63.7675 6.90125H65.1968L64.7738 5.56342ZM75.6763 1.88152C75.8592 1.88152 75.985 1.91963 76.0536 1.99586C76.1298 2.06447 76.168 2.18644 76.168 2.36176V3.39087C76.168 3.57382 76.1298 3.70341 76.0536 3.77964C75.985 3.84825 75.8592 3.88255 75.6763 3.88255H72.6576V5.20895H75.0702C75.2532 5.20895 75.379 5.24707 75.4476 5.3233C75.5238 5.3919 75.5619 5.51387 75.5619 5.6892V6.7183C75.5619 6.90125 75.5238 7.03085 75.4476 7.10708C75.379 7.17568 75.2532 7.20999 75.0702 7.20999H72.6576V9.51975C72.6576 9.69508 72.6233 9.82086 72.5547 9.89709C72.4861 9.9657 72.3603 10 72.1773 10H70.8852C70.7023 10 70.5727 9.9657 70.4965 9.89709C70.4278 9.82086 70.3935 9.69508 70.3935 9.51975V2.36176C70.3935 2.18644 70.4278 2.06447 70.4965 1.99586C70.5727 1.91963 70.7023 1.88152 70.8852 1.88152H75.6763ZM83.6255 1.88152C83.8084 1.88152 83.9342 1.91963 84.0028 1.99586C84.079 2.06447 84.1171 2.18644 84.1171 2.36176V3.39087C84.1171 3.57382 84.079 3.70341 84.0028 3.77964C83.9342 3.84825 83.8084 3.88255 83.6255 3.88255H80.6068V5.20895H83.0194C83.2024 5.20895 83.3282 5.24707 83.3968 5.3233C83.473 5.3919 83.5111 5.51387 83.5111 5.6892V6.7183C83.5111 6.90125 83.473 7.03085 83.3968 7.10708C83.3282 7.17568 83.2024 7.20999 83.0194 7.20999H80.6068V9.51975C80.6068 9.69508 80.5725 9.82086 80.5039 9.89709C80.4352 9.9657 80.3095 10 80.1265 10H78.8344C78.6515 10 78.5219 9.9657 78.4456 9.89709C78.377 9.82086 78.3427 9.69508 78.3427 9.51975V2.36176C78.3427 2.18644 78.377 2.06447 78.4456 1.99586C78.5219 1.91963 78.6515 1.88152 78.8344 1.88152H83.6255ZM86.2919 2.3389C86.2919 2.17119 86.3262 2.05303 86.3948 1.98443C86.4635 1.91582 86.5816 1.88152 86.7493 1.88152H88.0986C88.2663 1.88152 88.3844 1.91582 88.4531 1.98443C88.5217 2.05303 88.556 2.17119 88.556 2.3389V9.54262C88.556 9.71033 88.5217 9.82848 88.4531 9.89709C88.3844 9.9657 88.2663 10 88.0986 10H86.7493C86.5816 10 86.4635 9.9657 86.3948 9.89709C86.3262 9.82848 86.2919 9.71033 86.2919 9.54262V2.3389ZM97.4615 1.88152C97.6368 1.88152 97.7588 1.91963 97.8274 1.99586C97.9036 2.06447 97.9417 2.18644 97.9417 2.36176V9.51975C97.9417 9.69508 97.9036 9.82086 97.8274 9.89709C97.7588 9.9657 97.6368 10 97.4615 10H96.1694C95.9559 10 95.7996 9.92377 95.7005 9.77131L93.9396 7.06134C93.7033 6.68781 93.5166 6.34097 93.3793 6.0208C93.2498 5.70063 93.1011 5.26231 92.9334 4.70583H92.8419C92.9486 5.17846 93.0211 5.51387 93.0592 5.71207C93.0973 5.91027 93.1316 6.18469 93.1621 6.53535C93.2002 6.87839 93.2193 7.25191 93.2193 7.65593V9.51975C93.2193 9.69508 93.1812 9.82086 93.1049 9.89709C93.0363 9.9657 92.9105 10 92.7276 10H91.5727C91.3897 10 91.2602 9.9657 91.1839 9.89709C91.1153 9.82086 91.081 9.69508 91.081 9.51975V2.36176C91.081 2.18644 91.1153 2.06447 91.1839 1.99586C91.2602 1.91963 91.3897 1.88152 91.5727 1.88152H92.922C93.143 1.88152 93.3031 1.95775 93.4022 2.11021L95.2775 5.03743C95.3994 5.22039 95.5062 5.40334 95.5976 5.58629C95.6891 5.76924 95.7577 5.9217 95.8035 6.04367C95.8568 6.16564 95.9254 6.33715 96.0093 6.55822C96.0931 6.77929 96.1694 6.96986 96.238 7.12994H96.3294C96.1312 6.48199 95.994 5.97506 95.9178 5.60916C95.8492 5.24325 95.8149 4.78588 95.8149 4.23702V2.36176C95.8149 2.18644 95.8492 2.06447 95.9178 1.99586C95.9864 1.91963 96.1122 1.88152 96.2951 1.88152H97.4615ZM100.46 2.3389C100.46 2.17119 100.494 2.05303 100.562 1.98443C100.631 1.91582 100.749 1.88152 100.917 1.88152H102.266C102.434 1.88152 102.552 1.91582 102.621 1.98443C102.689 2.05303 102.724 2.17119 102.724 2.3389V9.54262C102.724 9.71033 102.689 9.82848 102.621 9.89709C102.552 9.9657 102.434 10 102.266 10H100.917C100.749 10 100.631 9.9657 100.562 9.89709C100.494 9.82848 100.46 9.71033 100.46 9.54262V2.3389ZM110.954 1.88152C111.137 1.88152 111.263 1.91963 111.332 1.99586C111.408 2.06447 111.446 2.18644 111.446 2.36176V3.39087C111.446 3.57382 111.408 3.70341 111.332 3.77964C111.263 3.84825 111.137 3.88255 110.954 3.88255H109.262V9.51975C109.262 9.69508 109.224 9.82086 109.148 9.89709C109.079 9.9657 108.953 10 108.77 10H107.478C107.295 10 107.17 9.9657 107.101 9.89709C107.032 9.82086 106.998 9.69508 106.998 9.51975V3.88255H105.294C105.111 3.88255 104.986 3.84825 104.917 3.77964C104.848 3.70341 104.814 3.57382 104.814 3.39087V2.36176C104.814 2.18644 104.848 2.06447 104.917 1.99586C104.986 1.91963 105.111 1.88152 105.294 1.88152H110.954ZM113.51 2.3389C113.51 2.17119 113.545 2.05303 113.613 1.98443C113.682 1.91582 113.8 1.88152 113.968 1.88152H115.317C115.485 1.88152 115.603 1.91582 115.672 1.98443C115.74 2.05303 115.775 2.17119 115.775 2.3389V9.54262C115.775 9.71033 115.74 9.82848 115.672 9.89709C115.603 9.9657 115.485 10 115.317 10H113.968C113.8 10 113.682 9.9657 113.613 9.89709C113.545 9.82848 113.51 9.71033 113.51 9.54262V2.3389ZM123.582 1.88152C123.765 1.88152 123.891 1.91963 123.96 1.99586C124.036 2.06447 124.074 2.18644 124.074 2.36176V3.39087C124.074 3.57382 124.036 3.70341 123.96 3.77964C123.891 3.84825 123.765 3.88255 123.582 3.88255H120.564V4.90022H122.976C123.159 4.90022 123.285 4.93834 123.354 5.01456C123.43 5.08317 123.468 5.20514 123.468 5.38047V6.40957C123.468 6.59252 123.43 6.72211 123.354 6.79834C123.285 6.86695 123.159 6.90125 122.976 6.90125H120.564V7.99897H123.685C123.861 7.99897 123.982 8.03327 124.051 8.10188C124.127 8.17048 124.165 8.29626 124.165 8.47921V9.51975C124.165 9.69508 124.127 9.82086 124.051 9.89709C123.982 9.9657 123.861 10 123.685 10H118.791C118.608 10 118.479 9.9657 118.402 9.89709C118.334 9.82086 118.3 9.69508 118.3 9.51975V2.36176C118.3 2.18644 118.334 2.06447 118.402 1.99586C118.479 1.91963 118.608 1.88152 118.791 1.88152H123.582ZM126.142 4.27132C126.142 3.5014 126.44 2.88394 127.034 2.41894C127.636 1.94631 128.471 1.71 129.538 1.71C130.377 1.71 131.052 1.83959 131.562 2.09877C132.073 2.35795 132.462 2.76197 132.729 3.31083C132.873 3.60812 132.782 3.82157 132.454 3.95116L131.311 4.44284C131.158 4.51145 131.04 4.53051 130.956 4.50001C130.872 4.46952 130.785 4.37042 130.693 4.20272C130.495 3.80632 130.11 3.60812 129.538 3.60812C128.814 3.60812 128.452 3.80632 128.452 4.20272C128.452 4.42378 128.574 4.58005 128.818 4.67153C129.062 4.76301 129.439 4.83924 129.95 4.90022C130.285 4.94596 130.564 4.9917 130.785 5.03743C131.006 5.08317 131.269 5.17084 131.574 5.30043C131.886 5.42239 132.134 5.57104 132.317 5.74637C132.5 5.9217 132.656 6.16564 132.786 6.47818C132.923 6.79072 132.992 7.15281 132.992 7.56445C132.992 8.38011 132.66 9.02045 131.997 9.48545C131.341 9.94283 130.491 10.1715 129.447 10.1715C127.663 10.1715 126.554 9.58074 126.119 8.39917C126.059 8.22384 126.051 8.09044 126.097 7.99897C126.15 7.90749 126.261 7.83126 126.428 7.77028L127.503 7.3815C127.671 7.32052 127.804 7.30908 127.903 7.3472C128.002 7.37769 128.094 7.47298 128.178 7.63306C128.384 8.03708 128.814 8.23909 129.47 8.23909C130.285 8.23909 130.693 8.02183 130.693 7.58732C130.693 7.3815 130.583 7.23285 130.362 7.14138C130.141 7.0499 129.805 6.97367 129.355 6.91269C129.142 6.8822 128.986 6.85933 128.887 6.84408C128.788 6.82884 128.631 6.80216 128.418 6.76404C128.204 6.7183 128.037 6.67638 127.915 6.63826C127.8 6.60015 127.652 6.54297 127.469 6.46674C127.286 6.39051 127.141 6.31047 127.034 6.22662C126.928 6.14277 126.809 6.03605 126.68 5.90645C126.55 5.77686 126.451 5.63584 126.382 5.48338C126.322 5.3233 126.264 5.14416 126.211 4.94596C126.165 4.74014 126.142 4.51526 126.142 4.27132Z" fill="white"/>
</svg>
