<svg width="109" height="30" viewBox="0 0 109 30" fill="none" xmlns="http://www.w3.org/2000/svg">
<path d="M7.55062 2.54814C8.10103 2.54814 8.60641 2.63321 9.06675 2.80333C9.5271 2.97346 9.92239 3.21864 10.2526 3.53888C10.5929 3.84911 10.8531 4.2294 11.0332 4.67973C11.2234 5.13007 11.3184 5.63544 11.3184 6.19586C11.3184 6.79631 11.2184 7.3217 11.0182 7.77203C10.8281 8.22237 10.5629 8.59765 10.2226 8.89787C9.88236 9.18809 9.48206 9.40825 9.02172 9.55836C8.56138 9.70848 8.06601 9.78353 7.53561 9.78353L3.7528 9.78353L3.7528 13.8516H0.645481L0.645481 2.54814L7.55062 2.54814ZM7.2504 7.1866C7.58065 7.1866 7.82083 7.11154 7.97094 6.96143C8.12105 6.80131 8.1961 6.54612 8.1961 6.19586C8.1961 5.83559 8.12605 5.57039 7.98595 5.40027C7.84584 5.23014 7.60066 5.14508 7.2504 5.14508L3.7528 5.14508L3.7528 7.1866H7.2504ZM17.135 9.49832H15.3337V13.8516L12.2264 13.8516L12.2264 2.54814L19.1315 2.54814C19.6719 2.54814 20.1673 2.6282 20.6176 2.78832C21.078 2.94844 21.4733 3.17861 21.8035 3.47884C22.1338 3.77906 22.3939 4.14934 22.5841 4.58966C22.7742 5.01998 22.8693 5.51535 22.8693 6.07577C22.8693 6.94642 22.6441 7.65695 22.1938 8.20736C21.7435 8.75777 21.153 9.13305 20.4225 9.3332L23.2746 13.8516H19.792L17.135 9.49832ZM15.3337 6.90139L18.8313 6.90139C19.1816 6.90139 19.4217 6.84634 19.5518 6.73626C19.6919 6.61617 19.762 6.39601 19.762 6.07577C19.762 5.75553 19.6919 5.52036 19.5518 5.37025C19.4217 5.22013 19.1816 5.14508 18.8313 5.14508L15.3337 5.14508V6.90139ZM23.9685 2.54814L27.0758 2.54814V13.8516L23.9685 13.8516V2.54814ZM34.286 6.90139C35.667 6.90139 36.6878 7.20661 37.3483 7.81707C38.0188 8.42752 38.354 9.25314 38.354 10.2939C38.354 10.7843 38.274 11.2446 38.1139 11.6749C37.9637 12.1053 37.7286 12.4855 37.4083 12.8158C37.0881 13.136 36.6778 13.3912 36.1774 13.5814C35.6871 13.7615 35.1016 13.8516 34.4211 13.8516H32.2445C31.4839 13.8516 30.8434 13.7515 30.3231 13.5513C29.8027 13.3512 29.3774 13.086 29.0471 12.7557C28.7269 12.4155 28.4967 12.0202 28.3566 11.5699C28.2165 11.1195 28.1464 10.6392 28.1464 10.1288H31.2537C31.2537 10.4991 31.3388 10.7793 31.5089 10.9694C31.6791 11.1596 31.9693 11.2546 32.3796 11.2546H34.271C34.6012 11.2546 34.8464 11.1996 35.0065 11.0895C35.1667 10.9694 35.2467 10.7643 35.2467 10.474C35.2467 10.3239 35.2317 10.1888 35.2017 10.0687C35.1717 9.94866 35.1166 9.84858 35.0366 9.76852C34.9565 9.67845 34.8414 9.61341 34.6913 9.57338C34.5512 9.52334 34.3661 9.49832 34.1359 9.49832L32.2745 9.49832C31.524 9.49832 30.8835 9.40825 30.3531 9.22812C29.8327 9.04798 29.4074 8.8028 29.0771 8.49257C28.7569 8.18234 28.5217 7.81707 28.3716 7.39675C28.2215 6.97644 28.1464 6.53111 28.1464 6.06076C28.1464 5.54037 28.2415 5.06502 28.4316 4.6347C28.6318 4.20438 28.912 3.8341 29.2723 3.52387C29.6425 3.21364 30.0879 2.97346 30.6083 2.80333C31.1387 2.63321 31.7291 2.54814 32.3796 2.54814L34.0458 2.54814C34.7964 2.54814 35.4319 2.64822 35.9522 2.84837C36.4826 3.03851 36.913 3.30371 37.2432 3.64396C37.5835 3.98421 37.8286 4.37951 37.9788 4.82984C38.1289 5.27017 38.2039 5.74552 38.2039 6.2559L35.1266 6.2559C35.1266 5.81558 35.0166 5.52036 34.7964 5.37025C34.5862 5.22013 34.291 5.14508 33.9107 5.14508L32.2745 5.14508C31.9543 5.14508 31.7041 5.21013 31.524 5.34022C31.3438 5.47032 31.2537 5.68048 31.2537 5.97069C31.2537 6.26091 31.3488 6.49108 31.539 6.66121C31.7291 6.82133 32.0443 6.90139 32.4847 6.90139H34.286ZM53.9953 2.54814V13.8516H50.888V7.81707L48.186 13.8516H45.2138L42.5268 7.83208V13.8516H39.4195V2.54814L43.3224 2.54814L46.6999 10.5191L50.0624 2.54814L53.9953 2.54814ZM61.2006 6.90139C62.5816 6.90139 63.6024 7.20661 64.2629 7.81707C64.9334 8.42752 65.2686 9.25314 65.2686 10.2939C65.2686 10.7843 65.1886 11.2446 65.0284 11.6749C64.8783 12.1053 64.6431 12.4855 64.3229 12.8158C64.0027 13.136 63.5924 13.3912 63.092 13.5814C62.6016 13.7615 62.0162 13.8516 61.3357 13.8516H59.1591C58.3985 13.8516 57.758 13.7515 57.2376 13.5513C56.7172 13.3512 56.2919 13.086 55.9617 12.7557C55.6414 12.4155 55.4113 12.0202 55.2712 11.5699C55.1311 11.1195 55.061 10.6392 55.061 10.1288H58.1683C58.1683 10.4991 58.2534 10.7793 58.4235 10.9694C58.5936 11.1596 58.8839 11.2546 59.2942 11.2546H61.1856C61.5158 11.2546 61.761 11.1996 61.9211 11.0895C62.0812 10.9694 62.1613 10.7643 62.1613 10.474C62.1613 10.3239 62.1463 10.1888 62.1163 10.0687C62.0862 9.94866 62.0312 9.84858 61.9511 9.76852C61.8711 9.67845 61.756 9.61341 61.6059 9.57338C61.4658 9.52334 61.2806 9.49832 61.0505 9.49832H59.1891C58.4385 9.49832 57.798 9.40825 57.2677 9.22812C56.7473 9.04798 56.3219 8.8028 55.9917 8.49257C55.6715 8.18234 55.4363 7.81707 55.2862 7.39675C55.1361 6.97644 55.061 6.53111 55.061 6.06076C55.061 5.54037 55.1561 5.06502 55.3462 4.6347C55.5464 4.20438 55.8266 3.8341 56.1868 3.52387C56.5571 3.21364 57.0025 2.97346 57.5228 2.80333C58.0532 2.63321 58.6437 2.54814 59.2942 2.54814H60.9604C61.711 2.54814 62.3464 2.64822 62.8668 2.84837C63.3972 3.03851 63.8275 3.30371 64.1578 3.64396C64.498 3.98421 64.7432 4.37951 64.8933 4.82984C65.0434 5.27017 65.1185 5.74552 65.1185 6.2559L62.0412 6.2559C62.0412 5.81558 61.9311 5.52036 61.711 5.37025C61.5008 5.22013 61.2056 5.14508 60.8253 5.14508H59.1891C58.8688 5.14508 58.6187 5.21013 58.4385 5.34022C58.2584 5.47032 58.1683 5.68048 58.1683 5.97069C58.1683 6.26091 58.2634 6.49108 58.4535 6.66121C58.6437 6.82133 58.9589 6.90139 59.3992 6.90139H61.2006ZM98.094 8.20736C98.094 9.068 97.969 9.84858 97.7188 10.5491C97.4786 11.2396 97.1233 11.8301 96.653 12.3204C96.1926 12.8108 95.6272 13.1911 94.9567 13.4613C94.2862 13.7215 93.5256 13.8516 92.675 13.8516H91.4891C90.6185 13.8516 89.8379 13.7165 89.1474 13.4463C88.4669 13.1661 87.8864 12.7808 87.4061 12.2904C86.9357 11.79 86.5755 11.1946 86.3253 10.5041C86.0751 9.80355 85.95 9.03798 85.95 8.20736C85.95 7.36673 86.0751 6.60116 86.3253 5.91065C86.5755 5.22013 86.9357 4.62469 87.4061 4.12432C87.8864 3.62394 88.4669 3.23866 89.1474 2.96846C89.8379 2.68825 90.6185 2.54814 91.4891 2.54814H92.675C93.5256 2.54814 94.2862 2.68324 94.9567 2.95345C95.6272 3.21364 96.1926 3.58892 96.653 4.07928C97.1233 4.56965 97.4786 5.16509 97.7188 5.86561C97.969 6.56614 98.094 7.34672 98.094 8.20736ZM92.3298 11.2546C93.2104 11.2546 93.8709 10.9994 94.3112 10.4891C94.7516 9.96867 94.9717 9.2081 94.9717 8.20736C94.9717 6.16584 94.0911 5.14508 92.3298 5.14508H91.7443C90.8937 5.14508 90.2332 5.40027 89.7628 5.91065C89.3025 6.41102 89.0723 7.17659 89.0723 8.20736C89.0723 9.23813 89.3025 10.0037 89.7628 10.5041C90.2332 11.0044 90.8937 11.2546 91.7443 11.2546H92.3298ZM108.631 2.54814V5.14508L102.221 5.14508V6.90139L108.001 6.90139V9.49832L102.221 9.49832V13.8516H99.1141V2.54814L108.631 2.54814ZM7.55062 16.5481C8.10103 16.5481 8.60641 16.6332 9.06675 16.8033C9.5271 16.9735 9.92239 17.2186 10.2526 17.5389C10.5929 17.8491 10.8531 18.2294 11.0332 18.6797C11.2234 19.1301 11.3184 19.6354 11.3184 20.1959C11.3184 20.7963 11.2184 21.3217 11.0182 21.772C10.8281 22.2224 10.5629 22.5976 10.2226 22.8979C9.88236 23.1881 9.48206 23.4083 9.02172 23.5584C8.56138 23.7085 8.06601 23.7835 7.53561 23.7835H3.7528L3.7528 27.8516H0.645481L0.645481 16.5481H7.55062ZM7.2504 21.1866C7.58065 21.1866 7.82083 21.1115 7.97094 20.9614C8.12105 20.8013 8.1961 20.5461 8.1961 20.1959C8.1961 19.8356 8.12605 19.5704 7.98595 19.4003C7.84584 19.2301 7.60066 19.1451 7.2504 19.1451H3.7528V21.1866H7.2504ZM15.3337 25.2546H22.0437V27.8516H12.2264L12.2264 16.5481L21.7585 16.5481V19.1451H15.3337L15.3337 20.9014H21.128V23.4983H15.3337V25.2546ZM27.9536 23.4983H26.1523V27.8516H23.045V16.5481L29.9501 16.5481C30.4905 16.5481 30.9859 16.6282 31.4362 16.7883C31.8966 16.9484 32.2919 17.1786 32.6221 17.4788C32.9524 17.7791 33.2126 18.1493 33.4027 18.5897C33.5928 19.02 33.6879 19.5154 33.6879 20.0758C33.6879 20.9464 33.4627 21.6569 33.0124 22.2074C32.5621 22.7578 31.9716 23.133 31.2411 23.3332L34.0932 27.8516H30.6106L27.9536 23.4983ZM26.1523 20.9014H29.6499C30.0002 20.9014 30.2403 20.8463 30.3704 20.7363C30.5105 20.6162 30.5806 20.396 30.5806 20.0758C30.5806 19.7555 30.5105 19.5204 30.3704 19.3702C30.2403 19.2201 30.0002 19.1451 29.6499 19.1451H26.1523V20.9014ZM46.4428 23.9787C46.1526 25.1896 45.5572 26.1403 44.6565 26.8308C43.7558 27.5113 42.61 27.8516 41.2189 27.8516H40.0331C39.1624 27.8516 38.3818 27.7165 37.6913 27.4463C37.0108 27.1661 36.4304 26.7808 35.95 26.2904C35.4797 25.79 35.1194 25.1946 34.8692 24.5041C34.619 23.8035 34.4939 23.038 34.4939 22.2074C34.4939 21.3667 34.619 20.6012 34.8692 19.9106C35.1194 19.2201 35.4797 18.6247 35.95 18.1243C36.4304 17.6239 37.0108 17.2387 37.6913 16.9685C38.3718 16.6882 39.1474 16.5481 40.018 16.5481H40.0331H41.2189C42.61 16.5481 43.7508 16.8884 44.6415 17.5689C45.5322 18.2394 46.1276 19.1751 46.4278 20.376H43.1554C42.7251 19.5554 41.9645 19.1451 40.8737 19.1451H40.2883C39.4376 19.1451 38.7771 19.4003 38.3068 19.9106C37.8464 20.411 37.6163 21.1766 37.6163 22.2074C37.6163 23.2381 37.8464 24.0037 38.3068 24.5041C38.7771 25.0044 39.4376 25.2546 40.2883 25.2546H40.8737C41.9945 25.2546 42.7601 24.8293 43.1704 23.9787H46.4428ZM50.4575 25.2546H57.1675L57.1675 27.8516L47.3502 27.8516L47.3502 16.5481L56.8823 16.5481V19.1451H50.4575V20.9014H56.2518V23.4983H50.4575V25.2546ZM65.0739 16.5481C65.6243 16.5481 66.1297 16.6332 66.5901 16.8033C67.0504 16.9735 67.4457 17.2186 67.7759 17.5389C68.1162 17.8491 68.3764 18.2294 68.5565 18.6797C68.7467 19.1301 68.8417 19.6354 68.8417 20.1959C68.8417 20.7963 68.7417 21.3217 68.5415 21.772C68.3514 22.2224 68.0862 22.5976 67.7459 22.8979C67.4057 23.1881 67.0054 23.4083 66.545 23.5584C66.0847 23.7085 65.5893 23.7835 65.0589 23.7835H61.2761L61.2761 27.8516H58.1688L58.1688 16.5481L65.0739 16.5481ZM64.7737 21.1866C65.104 21.1866 65.3441 21.1115 65.4942 20.9614C65.6444 20.8013 65.7194 20.5461 65.7194 20.1959C65.7194 19.8356 65.6494 19.5704 65.5093 19.4003C65.3692 19.2301 65.124 19.1451 64.7737 19.1451H61.2761V21.1866H64.7737ZM79.8795 16.5481V19.1451H76.1117V27.8516H73.0194V19.1451L69.2366 19.1451V16.5481H79.8795ZM80.7149 16.5481H83.8222V27.8516H80.7149V16.5481ZM96.9636 22.2074C96.9636 23.068 96.8385 23.8486 96.5883 24.5491C96.3481 25.2396 95.9928 25.8301 95.5225 26.3204C95.0621 26.8108 94.4967 27.1911 93.8262 27.4613C93.1557 27.7215 92.3952 27.8516 91.5445 27.8516H90.3586C89.488 27.8516 88.7074 27.7165 88.0169 27.4463C87.3364 27.1661 86.756 26.7808 86.2756 26.2904C85.8052 25.79 85.445 25.1946 85.1948 24.5041C84.9446 23.8035 84.8195 23.038 84.8195 22.2074C84.8195 21.3667 84.9446 20.6012 85.1948 19.9106C85.445 19.2201 85.8052 18.6247 86.2756 18.1243C86.756 17.6239 87.3364 17.2387 88.0169 16.9685C88.7074 16.6882 89.488 16.5481 90.3586 16.5481H91.5445C92.3952 16.5481 93.1557 16.6832 93.8262 16.9534C94.4967 17.2136 95.0621 17.5889 95.5225 18.0793C95.9928 18.5696 96.3481 19.1651 96.5883 19.8656C96.8385 20.5661 96.9636 21.3467 96.9636 22.2074ZM91.1993 25.2546C92.0799 25.2546 92.7404 24.9994 93.1807 24.4891C93.6211 23.9687 93.8412 23.2081 93.8412 22.2074C93.8412 20.1658 92.9606 19.1451 91.1993 19.1451H90.6138C89.7632 19.1451 89.1027 19.4003 88.6324 19.9106C88.172 20.411 87.9418 21.1766 87.9418 22.2074C87.9418 23.2381 88.172 24.0037 88.6324 24.5041C89.1027 25.0044 89.7632 25.2546 90.6138 25.2546H91.1993ZM105.519 16.5481H108.627V27.8516H105.054L101.091 21.3517V27.8516H97.9836V16.5481H101.556L105.519 23.078V16.5481Z" fill="white"/>
<path d="M71.453 7.37907L70.45 5.51502L69.472 7.37907H67.0625L69.3497 3.60995L67.1475 0H69.5577L70.45 1.782L71.368 0H73.7767L71.5753 3.60995L73.8632 7.37907H71.453Z" fill="#EB0028"/>
</svg>
